<svg width="360" height="58" viewBox="0 0 360 58" fill="none" xmlns="http://www.w3.org/2000/svg">
<rect width="360" height="58" fill="#FF0095"/>
<path d="M23.5 28.9091C23.5 28.3655 23.6326 27.87 23.8977 27.4226C24.1629 26.9751 24.5192 26.6188 24.9666 26.3537C25.4141 26.0885 25.9096 25.956 26.4531 25.956C26.9238 25.956 27.358 26.0571 27.7557 26.2592C28.1567 26.4614 28.4882 26.7382 28.75 27.0895C29.0118 27.4375 29.1742 27.8319 29.2372 28.2727H28.0341C27.9678 27.9313 27.7839 27.6529 27.4822 27.4375C27.1806 27.2188 26.8376 27.1094 26.4531 27.1094C26.1217 27.1094 25.8201 27.1906 25.5483 27.353C25.2765 27.5154 25.0594 27.7325 24.897 28.0043C24.7346 28.276 24.6534 28.5777 24.6534 28.9091C24.6534 29.2405 24.7346 29.5421 24.897 29.8139C25.0594 30.0857 25.2765 30.3028 25.5483 30.4652C25.8201 30.6276 26.1217 30.7088 26.4531 30.7088C26.8376 30.7088 27.1624 30.6011 27.4276 30.3857C27.696 30.1669 27.8651 29.8868 27.9347 29.5455H29.1378C29.0748 29.9863 28.9207 30.3823 28.6754 30.7337C28.4302 31.0817 28.1153 31.3568 27.7308 31.5589C27.3497 31.7611 26.9238 31.8622 26.4531 31.8622C25.9096 31.8622 25.4141 31.7296 24.9666 31.4645C24.5192 31.1993 24.1629 30.843 23.8977 30.3956C23.6326 29.9482 23.5 29.4527 23.5 28.9091ZM26.4034 34.1591C25.6809 34.1591 25.0014 34.0232 24.3651 33.7514C23.732 33.4796 23.1735 33.1035 22.6896 32.6229C22.209 32.139 21.8312 31.5805 21.5561 30.9474C21.2843 30.3144 21.1501 29.6349 21.1534 28.9091C21.1567 28.1832 21.2943 27.5038 21.5661 26.8707C21.8411 26.2377 22.219 25.6809 22.6996 25.2003C23.1802 24.7164 23.737 24.3385 24.37 24.0668C25.0031 23.795 25.6809 23.6591 26.4034 23.6591C27.1293 23.6591 27.8087 23.795 28.4418 24.0668C29.0781 24.3385 29.6349 24.7164 30.1122 25.2003C30.5928 25.6809 30.969 26.2377 31.2408 26.8707C31.5125 27.5038 31.6501 28.1832 31.6534 28.9091C31.6567 29.6349 31.5225 30.3144 31.2507 30.9474C30.9789 31.5805 30.6027 32.139 30.1222 32.6229C29.6416 33.1035 29.0831 33.4796 28.4467 33.7514C27.8104 34.0232 27.1293 34.1591 26.4034 34.1591ZM26.4034 33.0057C26.9702 33.0057 27.5021 32.8996 27.9993 32.6875C28.4964 32.4754 28.9323 32.1821 29.3068 31.8075C29.6813 31.433 29.9747 30.9988 30.1868 30.505C30.3989 30.0078 30.5033 29.4775 30.5 28.9141C30.4967 28.3473 30.389 27.8153 30.1768 27.3182C29.9647 26.821 29.6714 26.3852 29.2969 26.0107C28.9223 25.6361 28.4882 25.3428 27.9943 25.1307C27.5005 24.9186 26.9702 24.8125 26.4034 24.8125C25.84 24.8125 25.3113 24.9186 24.8175 25.1307C24.3236 25.3428 23.8894 25.6378 23.5149 26.0156C23.1404 26.3902 22.8454 26.826 22.63 27.3232C22.4179 27.817 22.3101 28.3473 22.3068 28.9141C22.3035 29.4742 22.4079 30.0028 22.62 30.5C22.8321 30.9938 23.1255 31.428 23.5 31.8026C23.8778 32.1771 24.3137 32.4721 24.8075 32.6875C25.3047 32.8996 25.8366 33.0057 26.4034 33.0057ZM38.3986 23.8182L41.4213 32.3892H41.5407L44.5634 23.8182H45.856L42.1174 34H40.8446L37.106 23.8182H38.3986ZM47.4419 34V23.8182H53.5868V24.9119H48.6749V28.3523H53.2686V29.446H48.6749V32.9062H53.6664V34H47.4419ZM49.0726 22.5455C48.8638 22.5455 48.6782 22.4659 48.5158 22.3068C48.3567 22.1444 48.2772 21.9588 48.2772 21.75C48.2772 21.5213 48.3567 21.3324 48.5158 21.1832C48.6782 21.0308 48.8638 20.9545 49.0726 20.9545C49.3013 20.9545 49.4902 21.0308 49.6394 21.1832C49.7918 21.3324 49.8681 21.5213 49.8681 21.75C49.8681 21.9588 49.7918 22.1444 49.6394 22.3068C49.4902 22.4659 49.3013 22.5455 49.0726 22.5455ZM51.9363 22.5455C51.7275 22.5455 51.5418 22.4659 51.3794 22.3068C51.2203 22.1444 51.1408 21.9588 51.1408 21.75C51.1408 21.5213 51.2203 21.3324 51.3794 21.1832C51.5418 21.0308 51.7275 20.9545 51.9363 20.9545C52.165 20.9545 52.3539 21.0308 52.503 21.1832C52.6555 21.3324 52.7317 21.5213 52.7317 21.75C52.7317 21.9588 52.6555 22.1444 52.503 22.3068C52.3539 22.4659 52.165 22.5455 51.9363 22.5455ZM55.8091 34V23.8182H59.2495C60.0449 23.8182 60.6979 23.9541 61.2083 24.2259C61.7187 24.4943 62.0965 24.8639 62.3418 25.3345C62.5871 25.8052 62.7097 26.3404 62.7097 26.9403C62.7097 27.5402 62.5871 28.0722 62.3418 28.5362C62.0965 29.0002 61.7203 29.3648 61.2132 29.63C60.7061 29.8918 60.0582 30.0227 59.2694 30.0227H56.4853V28.9091H59.2296C59.7731 28.9091 60.2106 28.8295 60.5421 28.6705C60.8768 28.5114 61.1188 28.286 61.2679 27.9943C61.4204 27.6993 61.4966 27.348 61.4966 26.9403C61.4966 26.5327 61.4204 26.1764 61.2679 25.8714C61.1155 25.5665 60.8719 25.3312 60.5371 25.1655C60.2024 24.9964 59.7599 24.9119 59.2097 24.9119H57.0421V34H55.8091ZM60.6017 29.4261L63.1074 34H61.6756L59.2097 29.4261H60.6017ZM70.3324 26.3636C70.2727 25.8598 70.0308 25.4688 69.6065 25.1903C69.1823 24.9119 68.6619 24.7727 68.0455 24.7727C67.5947 24.7727 67.2003 24.8456 66.8622 24.9915C66.5275 25.1373 66.2656 25.3378 66.0767 25.593C65.8911 25.8482 65.7983 26.1383 65.7983 26.4631C65.7983 26.7348 65.8629 26.9685 65.9922 27.1641C66.1248 27.3563 66.2938 27.517 66.4993 27.6463C66.7048 27.7723 66.9202 27.8767 67.1456 27.9595C67.371 28.0391 67.5781 28.1037 67.767 28.1534L68.8011 28.4318C69.0663 28.5014 69.3613 28.5975 69.6861 28.7202C70.0142 28.8428 70.3274 29.0102 70.6257 29.2223C70.9273 29.4311 71.1759 29.6996 71.3714 30.0277C71.567 30.3558 71.6648 30.7585 71.6648 31.2358C71.6648 31.786 71.5206 32.2831 71.2322 32.7273C70.9472 33.1714 70.5296 33.5244 69.9794 33.7862C69.4325 34.0481 68.768 34.179 67.9858 34.179C67.2566 34.179 66.6252 34.0613 66.0916 33.826C65.5613 33.5907 65.1437 33.2625 64.8388 32.8416C64.5372 32.4207 64.3665 31.9318 64.3267 31.375H65.5994C65.6326 31.7595 65.7618 32.0777 65.9872 32.3295C66.2159 32.5781 66.5043 32.7637 66.8523 32.8864C67.2036 33.0057 67.5814 33.0653 67.9858 33.0653C68.4564 33.0653 68.879 32.9891 69.2536 32.8366C69.6281 32.6809 69.9247 32.4654 70.1435 32.1903C70.3622 31.9119 70.4716 31.5871 70.4716 31.2159C70.4716 30.8778 70.3771 30.6027 70.1882 30.3906C69.9993 30.1785 69.7507 30.0062 69.4425 29.8736C69.1342 29.741 68.8011 29.625 68.4432 29.5256L67.1903 29.1676C66.3949 28.9389 65.7652 28.6125 65.3011 28.1882C64.8371 27.764 64.6051 27.2088 64.6051 26.5227C64.6051 25.9527 64.7592 25.4555 65.0675 25.0312C65.379 24.6037 65.7966 24.2723 66.3203 24.0369C66.8473 23.7983 67.4356 23.679 68.0852 23.679C68.7415 23.679 69.3248 23.7966 69.8352 24.032C70.3456 24.264 70.75 24.5821 71.0483 24.9865C71.3499 25.3909 71.509 25.8499 71.5256 26.3636H70.3324ZM73.1351 24.9119V23.8182H80.7715V24.9119H77.5698V34H76.3368V24.9119H73.1351ZM82.6744 34V23.8182H83.9073V28.8693H84.0266L88.6005 23.8182H90.2113L85.9357 28.4119L90.2113 34H88.7198L85.18 29.267L83.9073 30.6989V34H82.6744ZM92.2248 34H90.9322L94.6708 23.8182H95.9435L99.6822 34H98.3896L95.3469 25.429H95.2674L92.2248 34ZM92.7021 30.0227H97.9123V31.1165H92.7021V30.0227Z" fill="#F5F5F5"/>
</svg>
