<svg width="320" height="83" viewBox="0 0 320 83" fill="none" xmlns="http://www.w3.org/2000/svg">
<path d="M10.7727 4H9.36364C9.2803 3.5947 9.13447 3.23864 8.92614 2.93182C8.72159 2.625 8.47159 2.36742 8.17614 2.15909C7.88447 1.94697 7.56061 1.78788 7.20455 1.68182C6.84849 1.57576 6.47727 1.52273 6.09091 1.52273C5.38636 1.52273 4.74811 1.70076 4.17614 2.05682C3.60795 2.41288 3.1553 2.9375 2.81818 3.63068C2.48485 4.32386 2.31818 5.17424 2.31818 6.18182C2.31818 7.18939 2.48485 8.03977 2.81818 8.73295C3.1553 9.42614 3.60795 9.95076 4.17614 10.3068C4.74811 10.6629 5.38636 10.8409 6.09091 10.8409C6.47727 10.8409 6.84849 10.7879 7.20455 10.6818C7.56061 10.5758 7.88447 10.4186 8.17614 10.2102C8.47159 9.99811 8.72159 9.73864 8.92614 9.43182C9.13447 9.12121 9.2803 8.76515 9.36364 8.36364H10.7727C10.6667 8.95833 10.4735 9.49053 10.1932 9.96023C9.91288 10.4299 9.56439 10.8295 9.14773 11.1591C8.73106 11.4848 8.26326 11.733 7.74432 11.9034C7.22917 12.0739 6.67803 12.1591 6.09091 12.1591C5.09849 12.1591 4.21591 11.9167 3.44318 11.4318C2.67045 10.947 2.0625 10.2576 1.61932 9.36364C1.17614 8.4697 0.954545 7.40909 0.954545 6.18182C0.954545 4.95455 1.17614 3.89394 1.61932 3C2.0625 2.10606 2.67045 1.41667 3.44318 0.931818C4.21591 0.446969 5.09849 0.204545 6.09091 0.204545C6.67803 0.204545 7.22917 0.289772 7.74432 0.460227C8.26326 0.630682 8.73106 0.880682 9.14773 1.21023C9.56439 1.53598 9.91288 1.93371 10.1932 2.40341C10.4735 2.86932 10.6667 3.40151 10.7727 4ZM12.8679 12V3.27273H14.2088V7.06818H15.0952L18.2315 3.27273H19.9588L16.4361 7.47727L20.0043 12H18.277L15.4134 8.31818H14.2088V12H12.8679ZM24.0298 12.2045C23.4768 12.2045 22.9749 12.1004 22.5241 11.892C22.0734 11.6799 21.7154 11.375 21.4503 10.9773C21.1851 10.5758 21.0526 10.0909 21.0526 9.52273C21.0526 9.02273 21.151 8.61742 21.348 8.30682C21.545 7.99242 21.8082 7.74621 22.1378 7.56818C22.4673 7.39015 22.831 7.25758 23.2287 7.17045C23.6302 7.07955 24.0336 7.00758 24.4389 6.95455C24.9692 6.88636 25.3991 6.83523 25.7287 6.80114C26.062 6.76326 26.3045 6.70076 26.456 6.61364C26.6113 6.52652 26.6889 6.375 26.6889 6.15909V6.11364C26.6889 5.55303 26.5355 5.11742 26.2287 4.80682C25.9257 4.49621 25.4654 4.34091 24.848 4.34091C24.2079 4.34091 23.706 4.48106 23.3423 4.76136C22.9787 5.04167 22.723 5.34091 22.5753 5.65909L21.3026 5.20455C21.5298 4.67424 21.8329 4.26136 22.2116 3.96591C22.5942 3.66667 23.0109 3.45833 23.4616 3.34091C23.9162 3.2197 24.3632 3.15909 24.8026 3.15909C25.0829 3.15909 25.4048 3.19318 25.7685 3.26136C26.1359 3.32576 26.4901 3.46023 26.831 3.66477C27.1757 3.86932 27.4616 4.17803 27.6889 4.59091C27.9162 5.00379 28.0298 5.55682 28.0298 6.25V12H26.6889V10.8182H26.6207C26.5298 11.0076 26.3783 11.2102 26.1662 11.4261C25.9541 11.642 25.6719 11.8258 25.3196 11.9773C24.9673 12.1288 24.5374 12.2045 24.0298 12.2045ZM24.2344 11C24.7647 11 25.2116 10.8958 25.5753 10.6875C25.9427 10.4792 26.2192 10.2102 26.4048 9.88068C26.5942 9.55114 26.6889 9.20455 26.6889 8.84091V7.61364C26.6321 7.68182 26.5071 7.74432 26.3139 7.80114C26.1245 7.85417 25.9048 7.90151 25.6548 7.94318C25.4086 7.98106 25.1681 8.01515 24.9332 8.04545C24.7022 8.07197 24.5147 8.0947 24.3707 8.11364C24.0223 8.15909 23.6965 8.23295 23.3935 8.33523C23.0942 8.43371 22.8518 8.58333 22.6662 8.78409C22.4844 8.98106 22.3935 9.25 22.3935 9.59091C22.3935 10.0568 22.5658 10.4091 22.9105 10.6477C23.259 10.8826 23.7003 11 24.2344 11ZM29.9318 12L33.4773 7.56818L29.9773 3.27273H31.5682L34.4773 7H35.2045V3.27273H36.5455V7H37.25L40.1591 3.27273H41.75L38.2727 7.56818L41.7955 12H40.1818L37.2273 8.25H36.5455V12H35.2045V8.25H34.5227L31.5455 12H29.9318ZM45.0526 10.0227L49.2571 3.27273H50.8026V12H49.4616V5.25L45.2798 12H43.7116V3.27273H45.0526V10.0227ZM52.071 4.52273V3.27273H59.1619V4.52273H56.2983V12H54.9574V4.52273H52.071ZM64.3239 12.1818C63.483 12.1818 62.7576 11.9962 62.1477 11.625C61.5417 11.25 61.0739 10.7273 60.7443 10.0568C60.4186 9.38258 60.2557 8.59848 60.2557 7.70455C60.2557 6.81061 60.4186 6.02273 60.7443 5.34091C61.0739 4.6553 61.5322 4.12121 62.1193 3.73864C62.7102 3.35227 63.3996 3.15909 64.1875 3.15909C64.642 3.15909 65.0909 3.23485 65.5341 3.38636C65.9773 3.53788 66.3807 3.78409 66.7443 4.125C67.108 4.46212 67.3977 4.90909 67.6136 5.46591C67.8295 6.02273 67.9375 6.70833 67.9375 7.52273V8.09091H61.2102V6.93182H66.5739C66.5739 6.43939 66.4754 6 66.2784 5.61364C66.0852 5.22727 65.8087 4.92235 65.4489 4.69886C65.0928 4.47538 64.6723 4.36364 64.1875 4.36364C63.6534 4.36364 63.1913 4.49621 62.8011 4.76136C62.4148 5.02273 62.1174 5.36364 61.9091 5.78409C61.7008 6.20455 61.5966 6.6553 61.5966 7.13636V7.90909C61.5966 8.56818 61.7102 9.12689 61.9375 9.58523C62.1686 10.0398 62.4886 10.3864 62.8977 10.625C63.3068 10.8598 63.7822 10.9773 64.3239 10.9773C64.6761 10.9773 64.9943 10.928 65.2784 10.8295C65.5663 10.7273 65.8144 10.5758 66.0227 10.375C66.2311 10.1705 66.392 9.91667 66.5057 9.61364L67.8011 9.97727C67.6648 10.4167 67.4356 10.803 67.1136 11.1364C66.7917 11.4659 66.3939 11.7235 65.9205 11.9091C65.447 12.0909 64.9148 12.1818 64.3239 12.1818ZM74.4773 12V3.27273H81.3409V12H80V4.52273H75.8182V12H74.4773ZM83.7898 15.2727V3.27273H85.0852V4.65909H85.2443C85.3428 4.50758 85.4792 4.31439 85.6534 4.07955C85.8314 3.84091 86.0852 3.62879 86.4148 3.44318C86.7481 3.25379 87.1989 3.15909 87.767 3.15909C88.5019 3.15909 89.1496 3.3428 89.7102 3.71023C90.2708 4.07765 90.7083 4.59848 91.0227 5.27273C91.3371 5.94697 91.4943 6.74242 91.4943 7.65909C91.4943 8.58333 91.3371 9.38447 91.0227 10.0625C90.7083 10.7367 90.2727 11.2595 89.7159 11.6307C89.1591 11.9981 88.517 12.1818 87.7898 12.1818C87.2292 12.1818 86.7803 12.089 86.4432 11.9034C86.1061 11.714 85.8466 11.5 85.6648 11.2614C85.483 11.0189 85.3428 10.8182 85.2443 10.6591H85.1307V15.2727H83.7898ZM85.108 7.63636C85.108 8.29545 85.2045 8.87689 85.3977 9.38068C85.5909 9.88068 85.8731 10.2727 86.2443 10.5568C86.6155 10.8371 87.0701 10.9773 87.608 10.9773C88.1686 10.9773 88.6364 10.8295 89.0114 10.5341C89.3902 10.2348 89.6742 9.83333 89.8636 9.32955C90.0568 8.82197 90.1534 8.25758 90.1534 7.63636C90.1534 7.02273 90.0587 6.4697 89.8693 5.97727C89.6837 5.48106 89.4015 5.08902 89.0227 4.80114C88.6477 4.50947 88.1761 4.36364 87.608 4.36364C87.0625 4.36364 86.6042 4.50189 86.233 4.77841C85.8617 5.05114 85.5814 5.43371 85.392 5.92614C85.2027 6.41477 85.108 6.98485 85.108 7.63636ZM94.8807 10.0227L99.0852 3.27273H100.631V12H99.2898V5.25L95.108 12H93.5398V3.27273H94.8807V10.0227ZM103.087 12V3.27273H106.655C107.594 3.27273 108.34 3.48485 108.893 3.90909C109.446 4.33333 109.723 4.89394 109.723 5.59091C109.723 6.12121 109.566 6.5322 109.251 6.82386C108.937 7.11174 108.534 7.30682 108.041 7.40909C108.363 7.45455 108.676 7.56818 108.979 7.75C109.286 7.93182 109.539 8.18182 109.74 8.5C109.941 8.81439 110.041 9.20076 110.041 9.65909C110.041 10.1061 109.928 10.5057 109.7 10.858C109.473 11.2102 109.147 11.4886 108.723 11.6932C108.299 11.8977 107.791 12 107.2 12H103.087ZM104.359 10.7727H107.2C107.662 10.7727 108.024 10.6629 108.286 10.4432C108.547 10.2235 108.678 9.92424 108.678 9.54545C108.678 9.0947 108.547 8.74053 108.286 8.48295C108.024 8.22159 107.662 8.09091 107.2 8.09091H104.359V10.7727ZM104.359 6.93182H106.655C107.015 6.93182 107.323 6.88258 107.581 6.78409C107.839 6.68182 108.036 6.53788 108.172 6.35227C108.312 6.16288 108.382 5.93939 108.382 5.68182C108.382 5.31439 108.229 5.02651 107.922 4.81818C107.615 4.60606 107.193 4.5 106.655 4.5H104.359V6.93182ZM115.73 12.1818C114.889 12.1818 114.164 11.9962 113.554 11.625C112.948 11.25 112.48 10.7273 112.151 10.0568C111.825 9.38258 111.662 8.59848 111.662 7.70455C111.662 6.81061 111.825 6.02273 112.151 5.34091C112.48 4.6553 112.938 4.12121 113.526 3.73864C114.116 3.35227 114.806 3.15909 115.594 3.15909C116.048 3.15909 116.497 3.23485 116.94 3.38636C117.384 3.53788 117.787 3.78409 118.151 4.125C118.514 4.46212 118.804 4.90909 119.02 5.46591C119.236 6.02273 119.344 6.70833 119.344 7.52273V8.09091H112.616V6.93182H117.98C117.98 6.43939 117.882 6 117.685 5.61364C117.491 5.22727 117.215 4.92235 116.855 4.69886C116.499 4.47538 116.079 4.36364 115.594 4.36364C115.06 4.36364 114.598 4.49621 114.207 4.76136C113.821 5.02273 113.524 5.36364 113.315 5.78409C113.107 6.20455 113.003 6.6553 113.003 7.13636V7.90909C113.003 8.56818 113.116 9.12689 113.344 9.58523C113.575 10.0398 113.895 10.3864 114.304 10.625C114.713 10.8598 115.188 10.9773 115.73 10.9773C116.082 10.9773 116.401 10.928 116.685 10.8295C116.973 10.7273 117.221 10.5758 117.429 10.375C117.637 10.1705 117.798 9.91667 117.912 9.61364L119.207 9.97727C119.071 10.4167 118.842 10.803 118.52 11.1364C118.198 11.4659 117.8 11.7235 117.327 11.9091C116.853 12.0909 116.321 12.1818 115.73 12.1818ZM120.571 4.52273V3.27273H127.662V4.52273H124.798V12H123.457V4.52273H120.571ZM133.663 1.61364V0.363636H142.391V1.61364H138.732V12H137.322V1.61364H133.663ZM144.818 10.0227L149.023 3.27273H150.568V12H149.227V5.25L145.045 12H143.477V3.27273H144.818V10.0227ZM157.797 10.1818L160.842 3.27273H162.115L158.342 12H157.251L153.547 3.27273H154.797L157.797 10.1818ZM154.365 3.27273V12H153.024V3.27273H154.365ZM161.229 12V3.27273H162.57V12H161.229ZM165.575 15.2727C165.348 15.2727 165.145 15.2538 164.967 15.2159C164.789 15.1818 164.666 15.1477 164.598 15.1136L164.939 13.9318C165.265 14.0152 165.553 14.0455 165.803 14.0227C166.053 14 166.274 13.8883 166.467 13.6875C166.664 13.4905 166.844 13.1705 167.007 12.7273L167.257 12.0455L164.03 3.27273H165.484L167.893 10.2273H167.984L170.393 3.27273H171.848L168.143 13.2727C167.977 13.7235 167.77 14.0966 167.524 14.392C167.278 14.6913 166.992 14.9129 166.666 15.0568C166.344 15.2008 165.981 15.2727 165.575 15.2727ZM178.913 12.1591V10.8409H179.641C179.921 10.8409 180.156 10.786 180.345 10.6761C180.538 10.5663 180.697 10.4242 180.822 10.25C180.951 10.0758 181.057 9.89394 181.141 9.70455L181.322 9.27273L177.3 0.363636H178.822L182.027 7.59091L184.959 0.363636H186.459L182.436 10.1136C182.277 10.4773 182.095 10.8144 181.891 11.125C181.69 11.4356 181.415 11.6856 181.067 11.875C180.722 12.0644 180.254 12.1591 179.663 12.1591H178.913ZM187.462 15.2727V3.27273H188.757V4.65909H188.916C189.015 4.50758 189.151 4.31439 189.325 4.07955C189.503 3.84091 189.757 3.62879 190.087 3.44318C190.42 3.25379 190.871 3.15909 191.439 3.15909C192.174 3.15909 192.821 3.3428 193.382 3.71023C193.943 4.07765 194.38 4.59848 194.695 5.27273C195.009 5.94697 195.166 6.74242 195.166 7.65909C195.166 8.58333 195.009 9.38447 194.695 10.0625C194.38 10.7367 193.945 11.2595 193.388 11.6307C192.831 11.9981 192.189 12.1818 191.462 12.1818C190.901 12.1818 190.452 12.089 190.115 11.9034C189.778 11.714 189.518 11.5 189.337 11.2614C189.155 11.0189 189.015 10.8182 188.916 10.6591H188.803V15.2727H187.462ZM188.78 7.63636C188.78 8.29545 188.876 8.87689 189.07 9.38068C189.263 9.88068 189.545 10.2727 189.916 10.5568C190.287 10.8371 190.742 10.9773 191.28 10.9773C191.84 10.9773 192.308 10.8295 192.683 10.5341C193.062 10.2348 193.346 9.83333 193.536 9.32955C193.729 8.82197 193.825 8.25758 193.825 7.63636C193.825 7.02273 193.731 6.4697 193.541 5.97727C193.356 5.48106 193.073 5.08902 192.695 4.80114C192.32 4.50947 191.848 4.36364 191.28 4.36364C190.734 4.36364 190.276 4.50189 189.905 4.77841C189.534 5.05114 189.253 5.43371 189.064 5.92614C188.875 6.41477 188.78 6.98485 188.78 7.63636ZM203.689 0L204.371 0.818181C204.106 1.07576 203.799 1.25568 203.45 1.35795C203.102 1.46023 202.708 1.52273 202.268 1.54545C201.829 1.56818 201.34 1.59091 200.803 1.61364C200.196 1.63636 199.695 1.78409 199.297 2.05682C198.899 2.32955 198.592 2.72348 198.376 3.23864C198.161 3.75379 198.022 4.38636 197.962 5.13636H198.075C198.371 4.59091 198.78 4.18939 199.303 3.93182C199.825 3.67424 200.386 3.54545 200.984 3.54545C201.666 3.54545 202.28 3.70455 202.825 4.02273C203.371 4.34091 203.803 4.8125 204.121 5.4375C204.439 6.0625 204.598 6.83333 204.598 7.75C204.598 8.66288 204.435 9.45076 204.109 10.1136C203.787 10.7765 203.335 11.2879 202.751 11.6477C202.172 12.0038 201.492 12.1818 200.712 12.1818C199.931 12.1818 199.248 11.9981 198.661 11.6307C198.073 11.2595 197.617 10.7102 197.291 9.98295C196.965 9.25189 196.803 8.34848 196.803 7.27273V6.34091C196.803 4.39773 197.132 2.92424 197.791 1.92045C198.454 0.916666 199.45 0.397727 200.78 0.363636C201.25 0.348485 201.668 0.344697 202.036 0.352272C202.403 0.359848 202.723 0.342803 202.996 0.301136C203.268 0.259469 203.5 0.159091 203.689 0ZM200.712 10.9773C201.238 10.9773 201.691 10.8447 202.07 10.5795C202.452 10.3144 202.746 9.94129 202.95 9.46023C203.155 8.97538 203.257 8.4053 203.257 7.75C203.257 7.11364 203.153 6.57197 202.945 6.125C202.74 5.67803 202.446 5.33712 202.064 5.10227C201.681 4.86742 201.223 4.75 200.689 4.75C200.299 4.75 199.948 4.81629 199.638 4.94886C199.327 5.08144 199.062 5.27651 198.842 5.53409C198.623 5.79167 198.452 6.10606 198.331 6.47727C198.214 6.84848 198.151 7.27273 198.143 7.75C198.143 8.72727 198.373 9.50947 198.831 10.0966C199.289 10.6837 199.916 10.9773 200.712 10.9773ZM209.217 12.2045C208.664 12.2045 208.162 12.1004 207.712 11.892C207.261 11.6799 206.903 11.375 206.638 10.9773C206.373 10.5758 206.24 10.0909 206.24 9.52273C206.24 9.02273 206.339 8.61742 206.536 8.30682C206.732 7.99242 206.996 7.74621 207.325 7.56818C207.655 7.39015 208.018 7.25758 208.416 7.17045C208.818 7.07955 209.221 7.00758 209.626 6.95455C210.157 6.88636 210.587 6.83523 210.916 6.80114C211.25 6.76326 211.492 6.70076 211.643 6.61364C211.799 6.52652 211.876 6.375 211.876 6.15909V6.11364C211.876 5.55303 211.723 5.11742 211.416 4.80682C211.113 4.49621 210.653 4.34091 210.036 4.34091C209.395 4.34091 208.893 4.48106 208.53 4.76136C208.166 5.04167 207.911 5.34091 207.763 5.65909L206.49 5.20455C206.717 4.67424 207.02 4.26136 207.399 3.96591C207.782 3.66667 208.198 3.45833 208.649 3.34091C209.104 3.2197 209.551 3.15909 209.99 3.15909C210.27 3.15909 210.592 3.19318 210.956 3.26136C211.323 3.32576 211.678 3.46023 212.018 3.66477C212.363 3.86932 212.649 4.17803 212.876 4.59091C213.104 5.00379 213.217 5.55682 213.217 6.25V12H211.876V10.8182H211.808C211.717 11.0076 211.566 11.2102 211.354 11.4261C211.142 11.642 210.859 11.8258 210.507 11.9773C210.155 12.1288 209.725 12.2045 209.217 12.2045ZM209.422 11C209.952 11 210.399 10.8958 210.763 10.6875C211.13 10.4792 211.407 10.2102 211.592 9.88068C211.782 9.55114 211.876 9.20455 211.876 8.84091V7.61364C211.82 7.68182 211.695 7.74432 211.501 7.80114C211.312 7.85417 211.092 7.90151 210.842 7.94318C210.596 7.98106 210.356 8.01515 210.121 8.04545C209.89 8.07197 209.702 8.0947 209.558 8.11364C209.21 8.15909 208.884 8.23295 208.581 8.33523C208.282 8.43371 208.039 8.58333 207.854 8.78409C207.672 8.98106 207.581 9.25 207.581 9.59091C207.581 10.0568 207.753 10.4091 208.098 10.6477C208.446 10.8826 208.888 11 209.422 11ZM221.506 7.02273V8.27273H216.688V7.02273H221.506ZM217.006 3.27273V12H215.665V3.27273H217.006ZM222.528 3.27273V12H221.188V3.27273H222.528ZM225.528 15.2727C225.301 15.2727 225.098 15.2538 224.92 15.2159C224.742 15.1818 224.619 15.1477 224.551 15.1136L224.892 13.9318C225.218 14.0152 225.506 14.0455 225.756 14.0227C226.006 14 226.227 13.8883 226.42 13.6875C226.617 13.4905 226.797 13.1705 226.96 12.7273L227.21 12.0455L223.983 3.27273H225.438L227.847 10.2273H227.938L230.347 3.27273H231.801L228.097 13.2727C227.93 13.7235 227.723 14.0966 227.477 14.392C227.231 14.6913 226.945 14.9129 226.619 15.0568C226.297 15.2008 225.934 15.2727 225.528 15.2727ZM234.001 12.0909C233.721 12.0909 233.481 11.9905 233.28 11.7898C233.079 11.589 232.979 11.3485 232.979 11.0682C232.979 10.7879 233.079 10.5473 233.28 10.3466C233.481 10.1458 233.721 10.0455 234.001 10.0455C234.282 10.0455 234.522 10.1458 234.723 10.3466C234.924 10.5473 235.024 10.7879 235.024 11.0682C235.024 11.2538 234.977 11.4242 234.882 11.5795C234.791 11.7348 234.668 11.8598 234.513 11.9545C234.361 12.0455 234.191 12.0909 234.001 12.0909ZM249.226 5.70455V6.95455H244.43V5.70455H249.226ZM241.658 8.36364H243.112C243.237 9.18182 243.514 9.81061 243.942 10.25C244.37 10.6894 245.055 10.9091 245.999 10.9091C246.665 10.9091 247.222 10.7216 247.669 10.3466C248.12 9.97159 248.457 9.47538 248.68 8.85795C248.908 8.24053 249.021 7.56818 249.021 6.84091V5.54545C249.021 4.74242 248.894 4.03598 248.641 3.42614C248.391 2.8125 248.029 2.33523 247.555 1.99432C247.086 1.64962 246.521 1.47727 245.862 1.47727C245.286 1.47727 244.809 1.57955 244.43 1.78409C244.052 1.98864 243.756 2.2822 243.544 2.66477C243.332 3.04735 243.188 3.50758 243.112 4.04545H241.658C241.733 3.30303 241.936 2.64394 242.266 2.06818C242.599 1.48864 243.063 1.03409 243.658 0.704545C244.256 0.371212 244.991 0.204545 245.862 0.204545C246.809 0.204545 247.627 0.426136 248.317 0.869318C249.006 1.30871 249.538 1.92803 249.913 2.72727C250.288 3.52273 250.476 4.45455 250.476 5.52273V6.86364C250.476 7.93182 250.29 8.86364 249.919 9.65909C249.548 10.4508 249.027 11.0663 248.357 11.5057C247.686 11.9413 246.9 12.1591 245.999 12.1591C245.074 12.1591 244.305 11.9924 243.692 11.6591C243.082 11.322 242.61 10.8674 242.277 10.2955C241.947 9.7197 241.741 9.07576 241.658 8.36364ZM252.165 4.52273V3.27273H259.256V4.52273H256.392V12H255.051V4.52273H252.165ZM264.304 12.1818C263.516 12.1818 262.825 11.9943 262.23 11.6193C261.639 11.2443 261.177 10.7197 260.844 10.0455C260.514 9.37121 260.349 8.58333 260.349 7.68182C260.349 6.77273 260.514 5.97917 260.844 5.30114C261.177 4.62311 261.639 4.09659 262.23 3.72159C262.825 3.34659 263.516 3.15909 264.304 3.15909C265.092 3.15909 265.781 3.34659 266.372 3.72159C266.967 4.09659 267.429 4.62311 267.759 5.30114C268.092 5.97917 268.259 6.77273 268.259 7.68182C268.259 8.58333 268.092 9.37121 267.759 10.0455C267.429 10.7197 266.967 11.2443 266.372 11.6193C265.781 11.9943 265.092 12.1818 264.304 12.1818ZM264.304 10.9773C264.902 10.9773 265.395 10.8239 265.781 10.517C266.168 10.2102 266.454 9.80682 266.639 9.30682C266.825 8.80682 266.918 8.26515 266.918 7.68182C266.918 7.09848 266.825 6.55492 266.639 6.05114C266.454 5.54735 266.168 5.14015 265.781 4.82955C265.395 4.51894 264.902 4.36364 264.304 4.36364C263.705 4.36364 263.213 4.51894 262.827 4.82955C262.44 5.14015 262.154 5.54735 261.969 6.05114C261.783 6.55492 261.69 7.09848 261.69 7.68182C261.69 8.26515 261.783 8.80682 261.969 9.30682C262.154 9.80682 262.44 10.2102 262.827 10.517C263.213 10.8239 263.705 10.9773 264.304 10.9773ZM277.374 12.2045C276.821 12.2045 276.319 12.1004 275.868 11.892C275.417 11.6799 275.059 11.375 274.794 10.9773C274.529 10.5758 274.396 10.0909 274.396 9.52273C274.396 9.02273 274.495 8.61742 274.692 8.30682C274.889 7.99242 275.152 7.74621 275.482 7.56818C275.811 7.39015 276.175 7.25758 276.572 7.17045C276.974 7.07955 277.377 7.00758 277.783 6.95455C278.313 6.88636 278.743 6.83523 279.072 6.80114C279.406 6.76326 279.648 6.70076 279.8 6.61364C279.955 6.52652 280.033 6.375 280.033 6.15909V6.11364C280.033 5.55303 279.879 5.11742 279.572 4.80682C279.269 4.49621 278.809 4.34091 278.192 4.34091C277.552 4.34091 277.05 4.48106 276.686 4.76136C276.322 5.04167 276.067 5.34091 275.919 5.65909L274.646 5.20455C274.874 4.67424 275.177 4.26136 275.555 3.96591C275.938 3.66667 276.355 3.45833 276.805 3.34091C277.26 3.2197 277.707 3.15909 278.146 3.15909C278.427 3.15909 278.749 3.19318 279.112 3.26136C279.48 3.32576 279.834 3.46023 280.175 3.66477C280.519 3.86932 280.805 4.17803 281.033 4.59091C281.26 5.00379 281.374 5.55682 281.374 6.25V12H280.033V10.8182H279.964C279.874 11.0076 279.722 11.2102 279.51 11.4261C279.298 11.642 279.016 11.8258 278.663 11.9773C278.311 12.1288 277.881 12.2045 277.374 12.2045ZM277.578 11C278.108 11 278.555 10.8958 278.919 10.6875C279.286 10.4792 279.563 10.2102 279.749 9.88068C279.938 9.55114 280.033 9.20455 280.033 8.84091V7.61364C279.976 7.68182 279.851 7.74432 279.658 7.80114C279.468 7.85417 279.249 7.90151 278.999 7.94318C278.752 7.98106 278.512 8.01515 278.277 8.04545C278.046 8.07197 277.858 8.0947 277.714 8.11364C277.366 8.15909 277.04 8.23295 276.737 8.33523C276.438 8.43371 276.196 8.58333 276.01 8.78409C275.828 8.98106 275.737 9.25 275.737 9.59091C275.737 10.0568 275.91 10.4091 276.254 10.6477C276.603 10.8826 277.044 11 277.578 11ZM283.821 12V3.27273H287.389C288.329 3.27273 289.075 3.48485 289.628 3.90909C290.181 4.33333 290.457 4.89394 290.457 5.59091C290.457 6.12121 290.3 6.5322 289.986 6.82386C289.671 7.11174 289.268 7.30682 288.776 7.40909C289.098 7.45455 289.41 7.56818 289.713 7.75C290.02 7.93182 290.274 8.18182 290.474 8.5C290.675 8.81439 290.776 9.20076 290.776 9.65909C290.776 10.1061 290.662 10.5057 290.435 10.858C290.207 11.2102 289.882 11.4886 289.457 11.6932C289.033 11.8977 288.526 12 287.935 12H283.821ZM285.094 10.7727H287.935C288.397 10.7727 288.759 10.6629 289.02 10.4432C289.281 10.2235 289.412 9.92424 289.412 9.54545C289.412 9.0947 289.281 8.74053 289.02 8.48295C288.759 8.22159 288.397 8.09091 287.935 8.09091H285.094V10.7727ZM285.094 6.93182H287.389C287.749 6.93182 288.058 6.88258 288.315 6.78409C288.573 6.68182 288.77 6.53788 288.906 6.35227C289.046 6.16288 289.116 5.93939 289.116 5.68182C289.116 5.31439 288.963 5.02651 288.656 4.81818C288.349 4.60606 287.927 4.5 287.389 4.5H285.094V6.93182ZM292.305 4.52273V3.27273H299.396V4.52273H296.533V12H295.192V4.52273H292.305ZM304.445 12.1818C303.657 12.1818 302.965 11.9943 302.371 11.6193C301.78 11.2443 301.318 10.7197 300.984 10.0455C300.655 9.37121 300.49 8.58333 300.49 7.68182C300.49 6.77273 300.655 5.97917 300.984 5.30114C301.318 4.62311 301.78 4.09659 302.371 3.72159C302.965 3.34659 303.657 3.15909 304.445 3.15909C305.232 3.15909 305.922 3.34659 306.513 3.72159C307.107 4.09659 307.57 4.62311 307.899 5.30114C308.232 5.97917 308.399 6.77273 308.399 7.68182C308.399 8.58333 308.232 9.37121 307.899 10.0455C307.57 10.7197 307.107 11.2443 306.513 11.6193C305.922 11.9943 305.232 12.1818 304.445 12.1818ZM304.445 10.9773C305.043 10.9773 305.536 10.8239 305.922 10.517C306.308 10.2102 306.594 9.80682 306.78 9.30682C306.965 8.80682 307.058 8.26515 307.058 7.68182C307.058 7.09848 306.965 6.55492 306.78 6.05114C306.594 5.54735 306.308 5.14015 305.922 4.82955C305.536 4.51894 305.043 4.36364 304.445 4.36364C303.846 4.36364 303.354 4.51894 302.967 4.82955C302.581 5.14015 302.295 5.54735 302.109 6.05114C301.924 6.55492 301.831 7.09848 301.831 7.68182C301.831 8.26515 301.924 8.80682 302.109 9.30682C302.295 9.80682 302.581 10.2102 302.967 10.517C303.354 10.8239 303.846 10.9773 304.445 10.9773ZM310.446 15.2727V3.27273H311.741V4.65909H311.901C311.999 4.50758 312.135 4.31439 312.31 4.07955C312.488 3.84091 312.741 3.62879 313.071 3.44318C313.404 3.25379 313.855 3.15909 314.423 3.15909C315.158 3.15909 315.806 3.3428 316.366 3.71023C316.927 4.07765 317.365 4.59848 317.679 5.27273C317.993 5.94697 318.151 6.74242 318.151 7.65909C318.151 8.58333 317.993 9.38447 317.679 10.0625C317.365 10.7367 316.929 11.2595 316.372 11.6307C315.815 11.9981 315.173 12.1818 314.446 12.1818C313.885 12.1818 313.437 12.089 313.099 11.9034C312.762 11.714 312.503 11.5 312.321 11.2614C312.139 11.0189 311.999 10.8182 311.901 10.6591H311.787V15.2727H310.446ZM311.764 7.63636C311.764 8.29545 311.861 8.87689 312.054 9.38068C312.247 9.88068 312.529 10.2727 312.901 10.5568C313.272 10.8371 313.726 10.9773 314.264 10.9773C314.825 10.9773 315.293 10.8295 315.668 10.5341C316.046 10.2348 316.33 9.83333 316.52 9.32955C316.713 8.82197 316.81 8.25758 316.81 7.63636C316.81 7.02273 316.715 6.4697 316.526 5.97727C316.34 5.48106 316.058 5.08902 315.679 4.80114C315.304 4.50947 314.832 4.36364 314.264 4.36364C313.719 4.36364 313.26 4.50189 312.889 4.77841C312.518 5.05114 312.238 5.43371 312.048 5.92614C311.859 6.41477 311.764 6.98485 311.764 7.63636ZM1.22727 34V25.2727H8.09091V34H6.75V26.5227H2.56818V34H1.22727ZM14.0852 34.1818C13.2973 34.1818 12.6061 33.9943 12.0114 33.6193C11.4205 33.2443 10.9583 32.7197 10.625 32.0455C10.2955 31.3712 10.1307 30.5833 10.1307 29.6818C10.1307 28.7727 10.2955 27.9792 10.625 27.3011C10.9583 26.6231 11.4205 26.0966 12.0114 25.7216C12.6061 25.3466 13.2973 25.1591 14.0852 25.1591C14.8731 25.1591 15.5625 25.3466 16.1534 25.7216C16.7481 26.0966 17.2102 26.6231 17.5398 27.3011C17.8731 27.9792 18.0398 28.7727 18.0398 29.6818C18.0398 30.5833 17.8731 31.3712 17.5398 32.0455C17.2102 32.7197 16.7481 33.2443 16.1534 33.6193C15.5625 33.9943 14.8731 34.1818 14.0852 34.1818ZM14.0852 32.9773C14.6837 32.9773 15.1761 32.8239 15.5625 32.517C15.9489 32.2102 16.2348 31.8068 16.4205 31.3068C16.6061 30.8068 16.6989 30.2652 16.6989 29.6818C16.6989 29.0985 16.6061 28.5549 16.4205 28.0511C16.2348 27.5473 15.9489 27.1402 15.5625 26.8295C15.1761 26.5189 14.6837 26.3636 14.0852 26.3636C13.4867 26.3636 12.9943 26.5189 12.608 26.8295C12.2216 27.1402 11.9356 27.5473 11.75 28.0511C11.5644 28.5549 11.4716 29.0985 11.4716 29.6818C11.4716 30.2652 11.5644 30.8068 11.75 31.3068C11.9356 31.8068 12.2216 32.2102 12.608 32.517C12.9943 32.8239 13.4867 32.9773 14.0852 32.9773ZM20.0866 34V25.2727H26.9503V34H25.6094V26.5227H21.4276V34H20.0866ZM29.9503 37.2727C29.723 37.2727 29.5204 37.2538 29.3423 37.2159C29.1643 37.1818 29.0412 37.1477 28.973 37.1136L29.3139 35.9318C29.6397 36.0152 29.9276 36.0455 30.1776 36.0227C30.4276 36 30.6491 35.8883 30.8423 35.6875C31.0393 35.4905 31.2192 35.1705 31.3821 34.7273L31.6321 34.0455L28.4048 25.2727H29.8594L32.2685 32.2273H32.3594L34.7685 25.2727H36.223L32.5185 35.2727C32.3518 35.7235 32.1454 36.0966 31.8991 36.392C31.6529 36.6913 31.367 36.9129 31.0412 37.0568C30.7192 37.2008 30.3556 37.2727 29.9503 37.2727ZM36.4858 34V32.75H36.804C37.0653 32.75 37.2831 32.6989 37.4574 32.5966C37.6316 32.4905 37.7718 32.3068 37.8778 32.0455C37.9877 31.7803 38.071 31.4129 38.1278 30.9432C38.1884 30.4697 38.232 29.8674 38.2585 29.1364L38.4176 25.2727H44.2358V34H42.8949V26.5227H39.6903L39.554 29.6364C39.5237 30.3523 39.4593 30.983 39.3608 31.5284C39.2661 32.0701 39.1203 32.5246 38.9233 32.892C38.7301 33.2595 38.4725 33.536 38.1506 33.7216C37.8286 33.9072 37.4252 34 36.9403 34H36.4858ZM51.946 34V26.5H49.6278C49.1051 26.5 48.6941 26.6212 48.3949 26.8636C48.0956 27.1061 47.946 27.4394 47.946 27.8636C47.946 28.2803 48.0805 28.608 48.3494 28.8466C48.6222 29.0852 48.9953 29.2045 49.4688 29.2045H52.2869V30.4545H49.4688C48.8778 30.4545 48.3684 30.3504 47.9403 30.142C47.5123 29.9337 47.1828 29.6364 46.9517 29.25C46.7206 28.8598 46.6051 28.3977 46.6051 27.8636C46.6051 27.3258 46.7263 26.8636 46.9688 26.4773C47.2112 26.0909 47.5578 25.7936 48.0085 25.5852C48.4631 25.3769 49.0028 25.2727 49.6278 25.2727H53.2188V34H51.946ZM46.1278 34L48.6051 29.6591H50.0597L47.5824 34H46.1278ZM55.6804 37.2727V25.2727H56.9759V26.6591H57.1349C57.2334 26.5076 57.3698 26.3144 57.544 26.0795C57.7221 25.8409 57.9759 25.6288 58.3054 25.4432C58.6387 25.2538 59.0895 25.1591 59.6577 25.1591C60.3925 25.1591 61.0402 25.3428 61.6009 25.7102C62.1615 26.0777 62.599 26.5985 62.9134 27.2727C63.2277 27.947 63.3849 28.7424 63.3849 29.6591C63.3849 30.5833 63.2277 31.3845 62.9134 32.0625C62.599 32.7367 62.1634 33.2595 61.6065 33.6307C61.0497 33.9981 60.4077 34.1818 59.6804 34.1818C59.1198 34.1818 58.6709 34.089 58.3338 33.9034C57.9967 33.714 57.7372 33.5 57.5554 33.2614C57.3736 33.0189 57.2334 32.8182 57.1349 32.6591H57.0213V37.2727H55.6804ZM56.9986 29.6364C56.9986 30.2955 57.0952 30.8769 57.2884 31.3807C57.4815 31.8807 57.7637 32.2727 58.1349 32.5568C58.5062 32.8371 58.9607 32.9773 59.4986 32.9773C60.0592 32.9773 60.527 32.8295 60.902 32.5341C61.2808 32.2348 61.5649 31.8333 61.7543 31.3295C61.9474 30.822 62.044 30.2576 62.044 29.6364C62.044 29.0227 61.9493 28.4697 61.7599 27.9773C61.5743 27.4811 61.2921 27.089 60.9134 26.8011C60.5384 26.5095 60.0668 26.3636 59.4986 26.3636C58.9531 26.3636 58.4948 26.5019 58.1236 26.7784C57.7524 27.0511 57.4721 27.4337 57.2827 27.9261C57.0933 28.4148 56.9986 28.9848 56.9986 29.6364ZM71.2713 29.0227V30.2727H66.4531V29.0227H71.2713ZM66.7713 25.2727V34H65.4304V25.2727H66.7713ZM72.294 25.2727V34H70.9531V25.2727H72.294ZM78.2884 34.1818C77.5005 34.1818 76.8092 33.9943 76.2145 33.6193C75.6236 33.2443 75.1615 32.7197 74.8281 32.0455C74.4986 31.3712 74.3338 30.5833 74.3338 29.6818C74.3338 28.7727 74.4986 27.9792 74.8281 27.3011C75.1615 26.6231 75.6236 26.0966 76.2145 25.7216C76.8092 25.3466 77.5005 25.1591 78.2884 25.1591C79.0762 25.1591 79.7656 25.3466 80.3565 25.7216C80.9512 26.0966 81.4134 26.6231 81.7429 27.3011C82.0762 27.9792 82.2429 28.7727 82.2429 29.6818C82.2429 30.5833 82.0762 31.3712 81.7429 32.0455C81.4134 32.7197 80.9512 33.2443 80.3565 33.6193C79.7656 33.9943 79.0762 34.1818 78.2884 34.1818ZM78.2884 32.9773C78.8868 32.9773 79.3793 32.8239 79.7656 32.517C80.152 32.2102 80.438 31.8068 80.6236 31.3068C80.8092 30.8068 80.902 30.2652 80.902 29.6818C80.902 29.0985 80.8092 28.5549 80.6236 28.0511C80.438 27.5473 80.152 27.1402 79.7656 26.8295C79.3793 26.5189 78.8868 26.3636 78.2884 26.3636C77.6899 26.3636 77.1974 26.5189 76.8111 26.8295C76.4247 27.1402 76.1387 27.5473 75.9531 28.0511C75.7675 28.5549 75.6747 29.0985 75.6747 29.6818C75.6747 30.2652 75.7675 30.8068 75.9531 31.3068C76.1387 31.8068 76.4247 32.2102 76.8111 32.517C77.1974 32.8239 77.6899 32.9773 78.2884 32.9773ZM89.6761 25.2727V26.5227H85.6307V34H84.2898V25.2727H89.6761ZM94.7259 34.1818C93.938 34.1818 93.2467 33.9943 92.652 33.6193C92.0611 33.2443 91.599 32.7197 91.2656 32.0455C90.9361 31.3712 90.7713 30.5833 90.7713 29.6818C90.7713 28.7727 90.9361 27.9792 91.2656 27.3011C91.599 26.6231 92.0611 26.0966 92.652 25.7216C93.2467 25.3466 93.938 25.1591 94.7259 25.1591C95.5137 25.1591 96.2031 25.3466 96.794 25.7216C97.3887 26.0966 97.8509 26.6231 98.1804 27.3011C98.5137 27.9792 98.6804 28.7727 98.6804 29.6818C98.6804 30.5833 98.5137 31.3712 98.1804 32.0455C97.8509 32.7197 97.3887 33.2443 96.794 33.6193C96.2031 33.9943 95.5137 34.1818 94.7259 34.1818ZM94.7259 32.9773C95.3243 32.9773 95.8168 32.8239 96.2031 32.517C96.5895 32.2102 96.8755 31.8068 97.0611 31.3068C97.2467 30.8068 97.3395 30.2652 97.3395 29.6818C97.3395 29.0985 97.2467 28.5549 97.0611 28.0511C96.8755 27.5473 96.5895 27.1402 96.2031 26.8295C95.8168 26.5189 95.3243 26.3636 94.7259 26.3636C94.1274 26.3636 93.6349 26.5189 93.2486 26.8295C92.8622 27.1402 92.5762 27.5473 92.3906 28.0511C92.205 28.5549 92.1122 29.0985 92.1122 29.6818C92.1122 30.2652 92.205 30.8068 92.3906 31.3068C92.5762 31.8068 92.8622 32.2102 93.2486 32.517C93.6349 32.8239 94.1274 32.9773 94.7259 32.9773ZM111.705 22L112.386 22.8182C112.121 23.0758 111.814 23.2557 111.466 23.358C111.117 23.4602 110.723 23.5227 110.284 23.5455C109.845 23.5682 109.356 23.5909 108.818 23.6136C108.212 23.6364 107.71 23.7841 107.312 24.0568C106.915 24.3295 106.608 24.7235 106.392 25.2386C106.176 25.7538 106.038 26.3864 105.977 27.1364H106.091C106.386 26.5909 106.795 26.1894 107.318 25.9318C107.841 25.6742 108.402 25.5455 109 25.5455C109.682 25.5455 110.295 25.7045 110.841 26.0227C111.386 26.3409 111.818 26.8125 112.136 27.4375C112.455 28.0625 112.614 28.8333 112.614 29.75C112.614 30.6629 112.451 31.4508 112.125 32.1136C111.803 32.7765 111.35 33.2879 110.767 33.6477C110.188 34.0038 109.508 34.1818 108.727 34.1818C107.947 34.1818 107.263 33.9981 106.676 33.6307C106.089 33.2595 105.633 32.7102 105.307 31.983C104.981 31.2519 104.818 30.3485 104.818 29.2727V28.3409C104.818 26.3977 105.148 24.9242 105.807 23.9205C106.47 22.9167 107.466 22.3977 108.795 22.3636C109.265 22.3485 109.684 22.3447 110.051 22.3523C110.419 22.3598 110.739 22.3428 111.011 22.3011C111.284 22.2595 111.515 22.1591 111.705 22ZM108.727 32.9773C109.254 32.9773 109.706 32.8447 110.085 32.5795C110.468 32.3144 110.761 31.9413 110.966 31.4602C111.17 30.9754 111.273 30.4053 111.273 29.75C111.273 29.1136 111.169 28.572 110.96 28.125C110.756 27.678 110.462 27.3371 110.08 27.1023C109.697 26.8674 109.239 26.75 108.705 26.75C108.314 26.75 107.964 26.8163 107.653 26.9489C107.343 27.0814 107.078 27.2765 106.858 27.5341C106.638 27.7917 106.468 28.1061 106.347 28.4773C106.229 28.8485 106.167 29.2727 106.159 29.75C106.159 30.7273 106.388 31.5095 106.847 32.0966C107.305 32.6837 107.932 32.9773 108.727 32.9773ZM113.892 34V32.75H114.21C114.472 32.75 114.689 32.6989 114.864 32.5966C115.038 32.4905 115.178 32.3068 115.284 32.0455C115.394 31.7803 115.477 31.4129 115.534 30.9432C115.595 30.4697 115.638 29.8674 115.665 29.1364L115.824 25.2727H121.642V34H120.301V26.5227H117.097L116.96 29.6364C116.93 30.3523 116.866 30.983 116.767 31.5284C116.672 32.0701 116.527 32.5246 116.33 32.892C116.136 33.2595 115.879 33.536 115.557 33.7216C115.235 33.9072 114.831 34 114.347 34H113.892ZM127.648 34.1818C126.86 34.1818 126.169 33.9943 125.574 33.6193C124.983 33.2443 124.521 32.7197 124.188 32.0455C123.858 31.3712 123.693 30.5833 123.693 29.6818C123.693 28.7727 123.858 27.9792 124.188 27.3011C124.521 26.6231 124.983 26.0966 125.574 25.7216C126.169 25.3466 126.86 25.1591 127.648 25.1591C128.436 25.1591 129.125 25.3466 129.716 25.7216C130.311 26.0966 130.773 26.6231 131.102 27.3011C131.436 27.9792 131.602 28.7727 131.602 29.6818C131.602 30.5833 131.436 31.3712 131.102 32.0455C130.773 32.7197 130.311 33.2443 129.716 33.6193C129.125 33.9943 128.436 34.1818 127.648 34.1818ZM127.648 32.9773C128.246 32.9773 128.739 32.8239 129.125 32.517C129.511 32.2102 129.797 31.8068 129.983 31.3068C130.169 30.8068 130.261 30.2652 130.261 29.6818C130.261 29.0985 130.169 28.5549 129.983 28.0511C129.797 27.5473 129.511 27.1402 129.125 26.8295C128.739 26.5189 128.246 26.3636 127.648 26.3636C127.049 26.3636 126.557 26.5189 126.17 26.8295C125.784 27.1402 125.498 27.5473 125.312 28.0511C125.127 28.5549 125.034 29.0985 125.034 29.6818C125.034 30.2652 125.127 30.8068 125.312 31.3068C125.498 31.8068 125.784 32.2102 126.17 32.517C126.557 32.8239 127.049 32.9773 127.648 32.9773ZM139.036 25.2727V26.5227H134.99V34H133.649V25.2727H139.036ZM143.108 34.2045C142.555 34.2045 142.053 34.1004 141.602 33.892C141.152 33.6799 140.794 33.375 140.528 32.9773C140.263 32.5758 140.131 32.0909 140.131 31.5227C140.131 31.0227 140.229 30.6174 140.426 30.3068C140.623 29.9924 140.886 29.7462 141.216 29.5682C141.545 29.3902 141.909 29.2576 142.307 29.1705C142.708 29.0795 143.112 29.0076 143.517 28.9545C144.047 28.8864 144.477 28.8352 144.807 28.8011C145.14 28.7633 145.383 28.7008 145.534 28.6136C145.689 28.5265 145.767 28.375 145.767 28.1591V28.1136C145.767 27.553 145.614 27.1174 145.307 26.8068C145.004 26.4962 144.544 26.3409 143.926 26.3409C143.286 26.3409 142.784 26.4811 142.42 26.7614C142.057 27.0417 141.801 27.3409 141.653 27.6591L140.381 27.2045C140.608 26.6742 140.911 26.2614 141.29 25.9659C141.672 25.6667 142.089 25.4583 142.54 25.3409C142.994 25.2197 143.441 25.1591 143.881 25.1591C144.161 25.1591 144.483 25.1932 144.847 25.2614C145.214 25.3258 145.568 25.4602 145.909 25.6648C146.254 25.8693 146.54 26.178 146.767 26.5909C146.994 27.0038 147.108 27.5568 147.108 28.25V34H145.767V32.8182H145.699C145.608 33.0076 145.456 33.2102 145.244 33.4261C145.032 33.642 144.75 33.8258 144.398 33.9773C144.045 34.1288 143.616 34.2045 143.108 34.2045ZM143.312 33C143.843 33 144.29 32.8958 144.653 32.6875C145.021 32.4792 145.297 32.2102 145.483 31.8807C145.672 31.5511 145.767 31.2045 145.767 30.8409V29.6136C145.71 29.6818 145.585 29.7443 145.392 29.8011C145.203 29.8542 144.983 29.9015 144.733 29.9432C144.487 29.9811 144.246 30.0152 144.011 30.0455C143.78 30.072 143.593 30.0947 143.449 30.1136C143.1 30.1591 142.775 30.233 142.472 30.3352C142.172 30.4337 141.93 30.5833 141.744 30.7841C141.563 30.9811 141.472 31.25 141.472 31.5909C141.472 32.0568 141.644 32.4091 141.989 32.6477C142.337 32.8826 142.778 33 143.312 33ZM157.374 32.75H156.192L153.896 29.3409V29.2273H155.192L157.374 32.75ZM157.374 25.7727L155.192 29.2955H153.896V29.1818L156.192 25.7727H157.374ZM160.283 32.75H159.101L156.805 29.3409V29.2273H158.101L160.283 32.75ZM160.283 25.7727L158.101 29.2955H156.805V29.1818L159.101 25.7727H160.283ZM164.991 34L161.81 22.3636H163.241L165.673 31.8409H165.787L168.264 22.3636H169.855L172.332 31.8409H172.446L174.878 22.3636H176.31L173.128 34H171.673L169.105 24.7273H169.014L166.446 34H164.991ZM179.639 34.2045C179.086 34.2045 178.584 34.1004 178.134 33.892C177.683 33.6799 177.325 33.375 177.06 32.9773C176.795 32.5758 176.662 32.0909 176.662 31.5227C176.662 31.0227 176.76 30.6174 176.957 30.3068C177.154 29.9924 177.418 29.7462 177.747 29.5682C178.077 29.3902 178.44 29.2576 178.838 29.1705C179.24 29.0795 179.643 29.0076 180.048 28.9545C180.579 28.8864 181.009 28.8352 181.338 28.8011C181.671 28.7633 181.914 28.7008 182.065 28.6136C182.221 28.5265 182.298 28.375 182.298 28.1591V28.1136C182.298 27.553 182.145 27.1174 181.838 26.8068C181.535 26.4962 181.075 26.3409 180.457 26.3409C179.817 26.3409 179.315 26.4811 178.952 26.7614C178.588 27.0417 178.332 27.3409 178.185 27.6591L176.912 27.2045C177.139 26.6742 177.442 26.2614 177.821 25.9659C178.204 25.6667 178.62 25.4583 179.071 25.3409C179.526 25.2197 179.973 25.1591 180.412 25.1591C180.692 25.1591 181.014 25.1932 181.378 25.2614C181.745 25.3258 182.099 25.4602 182.44 25.6648C182.785 25.8693 183.071 26.178 183.298 26.5909C183.526 27.0038 183.639 27.5568 183.639 28.25V34H182.298V32.8182H182.23C182.139 33.0076 181.988 33.2102 181.776 33.4261C181.563 33.642 181.281 33.8258 180.929 33.9773C180.577 34.1288 180.147 34.2045 179.639 34.2045ZM179.844 33C180.374 33 180.821 32.8958 181.185 32.6875C181.552 32.4792 181.829 32.2102 182.014 31.8807C182.204 31.5511 182.298 31.2045 182.298 30.8409V29.6136C182.241 29.6818 182.116 29.7443 181.923 29.8011C181.734 29.8542 181.514 29.9015 181.264 29.9432C181.018 29.9811 180.777 30.0152 180.543 30.0455C180.312 30.072 180.124 30.0947 179.98 30.1136C179.632 30.1591 179.306 30.233 179.003 30.3352C178.704 30.4337 178.461 30.5833 178.276 30.7841C178.094 30.9811 178.003 31.25 178.003 31.5909C178.003 32.0568 178.175 32.4091 178.52 32.6477C178.868 32.8826 179.31 33 179.844 33ZM186.087 34V25.2727H187.428V34H186.087ZM186.768 23.8182C186.507 23.8182 186.282 23.7292 186.092 23.5511C185.907 23.3731 185.814 23.1591 185.814 22.9091C185.814 22.6591 185.907 22.4451 186.092 22.267C186.282 22.089 186.507 22 186.768 22C187.03 22 187.253 22.089 187.439 22.267C187.628 22.4451 187.723 22.6591 187.723 22.9091C187.723 23.1591 187.628 23.3731 187.439 23.5511C187.253 23.7292 187.03 23.8182 186.768 23.8182ZM193.679 25.2727V26.4091H189.156V25.2727H193.679ZM190.474 23.1818H191.815V31.5C191.815 31.8788 191.87 32.1629 191.98 32.3523C192.094 32.5379 192.238 32.6629 192.412 32.7273C192.59 32.7879 192.777 32.8182 192.974 32.8182C193.122 32.8182 193.243 32.8106 193.338 32.7955C193.433 32.7765 193.509 32.7614 193.565 32.75L193.838 33.9545C193.747 33.9886 193.62 34.0227 193.457 34.0568C193.295 34.0947 193.088 34.1136 192.838 34.1136C192.459 34.1136 192.088 34.0322 191.724 33.8693C191.365 33.7064 191.065 33.4583 190.827 33.125C190.592 32.7917 190.474 32.3712 190.474 31.8636V23.1818ZM200.378 34V22.3636H201.719V26.6591H201.832C201.931 26.5076 202.067 26.3144 202.241 26.0795C202.42 25.8409 202.673 25.6288 203.003 25.4432C203.336 25.2538 203.787 25.1591 204.355 25.1591C205.09 25.1591 205.738 25.3428 206.298 25.7102C206.859 26.0777 207.296 26.5985 207.611 27.2727C207.925 27.947 208.082 28.7424 208.082 29.6591C208.082 30.5833 207.925 31.3845 207.611 32.0625C207.296 32.7367 206.861 33.2595 206.304 33.6307C205.747 33.9981 205.105 34.1818 204.378 34.1818C203.817 34.1818 203.368 34.089 203.031 33.9034C202.694 33.714 202.435 33.5 202.253 33.2614C202.071 33.0189 201.931 32.8182 201.832 32.6591H201.673V34H200.378ZM201.696 29.6364C201.696 30.2955 201.793 30.8769 201.986 31.3807C202.179 31.8807 202.461 32.2727 202.832 32.5568C203.204 32.8371 203.658 32.9773 204.196 32.9773C204.757 32.9773 205.224 32.8295 205.599 32.5341C205.978 32.2348 206.262 31.8333 206.452 31.3295C206.645 30.822 206.741 30.2576 206.741 29.6364C206.741 29.0227 206.647 28.4697 206.457 27.9773C206.272 27.4811 205.99 27.089 205.611 26.8011C205.236 26.5095 204.764 26.3636 204.196 26.3636C203.651 26.3636 203.192 26.5019 202.821 26.7784C202.45 27.0511 202.17 27.4337 201.98 27.9261C201.791 28.4148 201.696 28.9848 201.696 29.6364ZM215.634 30.4318V25.2727H216.974V34H215.634V32.5227H215.543C215.338 32.9659 215.02 33.3428 214.588 33.6534C214.156 33.9602 213.611 34.1136 212.952 34.1136C212.406 34.1136 211.921 33.9943 211.497 33.7557C211.073 33.5133 210.74 33.1496 210.497 32.6648C210.255 32.1761 210.134 31.5606 210.134 30.8182V25.2727H211.474V30.7273C211.474 31.3636 211.652 31.8712 212.009 32.25C212.368 32.6288 212.827 32.8182 213.384 32.8182C213.717 32.8182 214.056 32.733 214.401 32.5625C214.749 32.392 215.041 32.1307 215.276 31.7784C215.514 31.4261 215.634 30.9773 215.634 30.4318ZM223.226 25.2727V26.4091H218.703V25.2727H223.226ZM220.021 23.1818H221.362V31.5C221.362 31.8788 221.417 32.1629 221.527 32.3523C221.641 32.5379 221.785 32.6629 221.959 32.7273C222.137 32.7879 222.324 32.8182 222.521 32.8182C222.669 32.8182 222.79 32.8106 222.885 32.7955C222.98 32.7765 223.055 32.7614 223.112 32.75L223.385 33.9545C223.294 33.9886 223.167 34.0227 223.004 34.0568C222.841 34.0947 222.635 34.1136 222.385 34.1136C222.006 34.1136 221.635 34.0322 221.271 33.8693C220.911 33.7064 220.612 33.4583 220.374 33.125C220.139 32.7917 220.021 32.3712 220.021 31.8636V23.1818ZM231.72 34L229.061 25.2727H230.47L232.357 31.9545H232.447L234.311 25.2727H235.743L237.584 31.9318H237.675L239.561 25.2727H240.97L238.311 34H236.993L235.084 27.2955H234.947L233.038 34H231.72ZM244.084 28.75V34H242.743V22.3636H244.084V26.6364H244.197C244.402 26.1856 244.709 25.8277 245.118 25.5625C245.531 25.2936 246.08 25.1591 246.766 25.1591C247.36 25.1591 247.881 25.2784 248.328 25.517C248.775 25.7519 249.122 26.1136 249.368 26.6023C249.618 27.0871 249.743 27.7045 249.743 28.4545V34H248.402V28.5455C248.402 27.8523 248.222 27.3163 247.862 26.9375C247.506 26.5549 247.012 26.3636 246.379 26.3636C245.94 26.3636 245.546 26.4564 245.197 26.642C244.853 26.8277 244.58 27.0985 244.379 27.4545C244.182 27.8106 244.084 28.2424 244.084 28.75ZM252.747 37.2727C252.52 37.2727 252.317 37.2538 252.139 37.2159C251.961 37.1818 251.838 37.1477 251.77 37.1136L252.111 35.9318C252.437 36.0152 252.724 36.0455 252.974 36.0227C253.224 36 253.446 35.8883 253.639 35.6875C253.836 35.4905 254.016 35.1705 254.179 34.7273L254.429 34.0455L251.202 25.2727H252.656L255.065 32.2273H255.156L257.565 25.2727H259.02L255.315 35.2727C255.149 35.7235 254.942 36.0966 254.696 36.392C254.45 36.6913 254.164 36.9129 253.838 37.0568C253.516 37.2008 253.152 37.2727 252.747 37.2727ZM260.631 32.75L262.812 29.2273H264.108V29.3409L261.812 32.75H260.631ZM260.631 25.7727H261.812L264.108 29.1818V29.2955H262.812L260.631 25.7727ZM263.54 32.75L265.722 29.2273H267.017V29.3409L264.722 32.75H263.54ZM263.54 25.7727H264.722L267.017 29.1818V29.2955H265.722L263.54 25.7727ZM288.703 28.3864V29.6364H272.703V28.3864H288.703ZM7.06818 51.0227V52.2727H2.25V51.0227H7.06818ZM2.56818 47.2727V56H1.22727V47.2727H2.56818ZM8.09091 47.2727V56H6.75V47.2727H8.09091ZM13.108 56.2045C12.5549 56.2045 12.053 56.1004 11.6023 55.892C11.1515 55.6799 10.7936 55.375 10.5284 54.9773C10.2633 54.5758 10.1307 54.0909 10.1307 53.5227C10.1307 53.0227 10.2292 52.6174 10.4261 52.3068C10.6231 51.9924 10.8864 51.7462 11.2159 51.5682C11.5455 51.3902 11.9091 51.2576 12.3068 51.1705C12.7083 51.0795 13.1117 51.0076 13.517 50.9545C14.0473 50.8864 14.4773 50.8352 14.8068 50.8011C15.1402 50.7633 15.3826 50.7008 15.5341 50.6136C15.6894 50.5265 15.767 50.375 15.767 50.1591V50.1136C15.767 49.553 15.6136 49.1174 15.3068 48.8068C15.0038 48.4962 14.5436 48.3409 13.9261 48.3409C13.286 48.3409 12.7841 48.4811 12.4205 48.7614C12.0568 49.0417 11.8011 49.3409 11.6534 49.6591L10.3807 49.2045C10.608 48.6742 10.911 48.2614 11.2898 47.9659C11.6723 47.6667 12.089 47.4583 12.5398 47.3409C12.9943 47.2197 13.4413 47.1591 13.8807 47.1591C14.161 47.1591 14.483 47.1932 14.8466 47.2614C15.214 47.3258 15.5682 47.4602 15.9091 47.6648C16.2538 47.8693 16.5398 48.178 16.767 48.5909C16.9943 49.0038 17.108 49.5568 17.108 50.25V56H15.767V54.8182H15.6989C15.608 55.0076 15.4564 55.2102 15.2443 55.4261C15.0322 55.642 14.75 55.8258 14.3977 55.9773C14.0455 56.1288 13.6155 56.2045 13.108 56.2045ZM13.3125 55C13.8428 55 14.2898 54.8958 14.6534 54.6875C15.0208 54.4792 15.2973 54.2102 15.483 53.8807C15.6723 53.5511 15.767 53.2045 15.767 52.8409V51.6136C15.7102 51.6818 15.5852 51.7443 15.392 51.8011C15.2027 51.8542 14.983 51.9015 14.733 51.9432C14.4867 51.9811 14.2462 52.0152 14.0114 52.0455C13.7803 52.072 13.5928 52.0947 13.4489 52.1136C13.1004 52.1591 12.7746 52.233 12.4716 52.3352C12.1723 52.4337 11.9299 52.5833 11.7443 52.7841C11.5625 52.9811 11.4716 53.25 11.4716 53.5909C11.4716 54.0568 11.6439 54.4091 11.9886 54.6477C12.3371 54.8826 12.7784 55 13.3125 55ZM19.5554 56V47.2727H26.419V56H25.0781V48.5227H20.8963V56H19.5554ZM28.8679 59.2727V47.2727H30.1634V48.6591H30.3224C30.4209 48.5076 30.5573 48.3144 30.7315 48.0795C30.9096 47.8409 31.1634 47.6288 31.4929 47.4432C31.8262 47.2538 32.277 47.1591 32.8452 47.1591C33.58 47.1591 34.2277 47.3428 34.7884 47.7102C35.349 48.0777 35.7865 48.5985 36.1009 49.2727C36.4152 49.947 36.5724 50.7424 36.5724 51.6591C36.5724 52.5833 36.4152 53.3845 36.1009 54.0625C35.7865 54.7367 35.3509 55.2595 34.794 55.6307C34.2372 55.9981 33.5952 56.1818 32.8679 56.1818C32.3073 56.1818 31.8584 56.089 31.5213 55.9034C31.1842 55.714 30.9247 55.5 30.7429 55.2614C30.5611 55.0189 30.4209 54.8182 30.3224 54.6591H30.2088V59.2727H28.8679ZM30.1861 51.6364C30.1861 52.2955 30.2827 52.8769 30.4759 53.3807C30.669 53.8807 30.9512 54.2727 31.3224 54.5568C31.6937 54.8371 32.1482 54.9773 32.6861 54.9773C33.2467 54.9773 33.7145 54.8295 34.0895 54.5341C34.4683 54.2348 34.7524 53.8333 34.9418 53.3295C35.1349 52.822 35.2315 52.2576 35.2315 51.6364C35.2315 51.0227 35.1368 50.4697 34.9474 49.9773C34.7618 49.4811 34.4796 49.089 34.1009 48.8011C33.7259 48.5095 33.2543 48.3636 32.6861 48.3636C32.1406 48.3636 31.6823 48.5019 31.3111 48.7784C30.9399 49.0511 30.6596 49.4337 30.4702 49.9261C30.2808 50.4148 30.1861 50.9848 30.1861 51.6364ZM39.9588 54.0227L44.1634 47.2727H45.7088V56H44.3679V49.25L40.1861 56H38.6179V47.2727H39.9588V54.0227ZM52.9375 54.1818L55.983 47.2727H57.2557L53.483 56H52.392L48.6875 47.2727H49.9375L52.9375 54.1818ZM49.5057 47.2727V56H48.1648V47.2727H49.5057ZM56.3693 56V47.2727H57.7102V56H56.3693ZM63.8239 56.1818C62.983 56.1818 62.2576 55.9962 61.6477 55.625C61.0417 55.25 60.5739 54.7273 60.2443 54.0568C59.9186 53.3826 59.7557 52.5985 59.7557 51.7045C59.7557 50.8106 59.9186 50.0227 60.2443 49.3409C60.5739 48.6553 61.0322 48.1212 61.6193 47.7386C62.2102 47.3523 62.8996 47.1591 63.6875 47.1591C64.142 47.1591 64.5909 47.2348 65.0341 47.3864C65.4773 47.5379 65.8807 47.7841 66.2443 48.125C66.608 48.4621 66.8977 48.9091 67.1136 49.4659C67.3295 50.0227 67.4375 50.7083 67.4375 51.5227V52.0909H60.7102V50.9318H66.0739C66.0739 50.4394 65.9754 50 65.7784 49.6136C65.5852 49.2273 65.3087 48.9223 64.9489 48.6989C64.5928 48.4754 64.1723 48.3636 63.6875 48.3636C63.1534 48.3636 62.6913 48.4962 62.3011 48.7614C61.9148 49.0227 61.6174 49.3636 61.4091 49.7841C61.2008 50.2045 61.0966 50.6553 61.0966 51.1364V51.9091C61.0966 52.5682 61.2102 53.1269 61.4375 53.5852C61.6686 54.0398 61.9886 54.3864 62.3977 54.625C62.8068 54.8598 63.2822 54.9773 63.8239 54.9773C64.1761 54.9773 64.4943 54.928 64.7784 54.8295C65.0663 54.7273 65.3144 54.5758 65.5227 54.375C65.7311 54.1705 65.892 53.9167 66.0057 53.6136L67.3011 53.9773C67.1648 54.4167 66.9356 54.803 66.6136 55.1364C66.2917 55.4659 65.8939 55.7235 65.4205 55.9091C64.947 56.0909 64.4148 56.1818 63.8239 56.1818ZM69.4773 59.2727V47.2727H70.7727V48.6591H70.9318C71.0303 48.5076 71.1667 48.3144 71.3409 48.0795C71.5189 47.8409 71.7727 47.6288 72.1023 47.4432C72.4356 47.2538 72.8864 47.1591 73.4545 47.1591C74.1894 47.1591 74.8371 47.3428 75.3977 47.7102C75.9583 48.0777 76.3958 48.5985 76.7102 49.2727C77.0246 49.947 77.1818 50.7424 77.1818 51.6591C77.1818 52.5833 77.0246 53.3845 76.7102 54.0625C76.3958 54.7367 75.9602 55.2595 75.4034 55.6307C74.8466 55.9981 74.2045 56.1818 73.4773 56.1818C72.9167 56.1818 72.4678 56.089 72.1307 55.9034C71.7936 55.714 71.5341 55.5 71.3523 55.2614C71.1705 55.0189 71.0303 54.8182 70.9318 54.6591H70.8182V59.2727H69.4773ZM70.7955 51.6364C70.7955 52.2955 70.892 52.8769 71.0852 53.3807C71.2784 53.8807 71.5606 54.2727 71.9318 54.5568C72.303 54.8371 72.7576 54.9773 73.2955 54.9773C73.8561 54.9773 74.3239 54.8295 74.6989 54.5341C75.0777 54.2348 75.3617 53.8333 75.5511 53.3295C75.7443 52.822 75.8409 52.2576 75.8409 51.6364C75.8409 51.0227 75.7462 50.4697 75.5568 49.9773C75.3712 49.4811 75.089 49.089 74.7102 48.8011C74.3352 48.5095 73.8636 48.3636 73.2955 48.3636C72.75 48.3636 72.2917 48.5019 71.9205 48.7784C71.5492 49.0511 71.2689 49.4337 71.0795 49.9261C70.8902 50.4148 70.7955 50.9848 70.7955 51.6364ZM81.2273 54.4091L81.1364 55.0227C81.072 55.4545 80.9735 55.9167 80.8409 56.4091C80.7121 56.9015 80.5777 57.3655 80.4375 57.8011C80.2973 58.2367 80.1818 58.5833 80.0909 58.8409H79.0682C79.1174 58.5985 79.1818 58.2784 79.2614 57.8807C79.3409 57.483 79.4205 57.0379 79.5 56.5455C79.5833 56.0568 79.6515 55.5568 79.7045 55.0455L79.7727 54.4091H81.2273ZM87.7571 45.6136V44.3636H96.4844V45.6136H92.8253V56H91.4162V45.6136H87.7571ZM98.6591 56V44.3636H105.682V45.6136H100.068V49.5455H105.318V50.7955H100.068V54.75H105.773V56H98.6591ZM111.812 56H108.222V44.3636H111.972C113.1 44.3636 114.066 44.5966 114.869 45.0625C115.672 45.5246 116.288 46.1894 116.716 47.0568C117.144 47.9205 117.358 48.9545 117.358 50.1591C117.358 51.3712 117.142 52.4148 116.71 53.2898C116.278 54.161 115.65 54.8314 114.824 55.3011C113.998 55.767 112.994 56 111.812 56ZM109.631 54.75H111.722C112.684 54.75 113.481 54.5644 114.114 54.1932C114.746 53.822 115.218 53.2936 115.528 52.608C115.839 51.9223 115.994 51.1061 115.994 50.1591C115.994 49.2197 115.841 48.411 115.534 47.733C115.227 47.0511 114.769 46.5284 114.159 46.1648C113.549 45.7973 112.79 45.6136 111.881 45.6136H109.631V54.75ZM124.04 56V47.2727H130.903V56H129.562V48.5227H125.381V56H124.04ZM136.898 56.1818C136.11 56.1818 135.419 55.9943 134.824 55.6193C134.233 55.2443 133.771 54.7197 133.438 54.0455C133.108 53.3712 132.943 52.5833 132.943 51.6818C132.943 50.7727 133.108 49.9792 133.438 49.3011C133.771 48.6231 134.233 48.0966 134.824 47.7216C135.419 47.3466 136.11 47.1591 136.898 47.1591C137.686 47.1591 138.375 47.3466 138.966 47.7216C139.561 48.0966 140.023 48.6231 140.352 49.3011C140.686 49.9792 140.852 50.7727 140.852 51.6818C140.852 52.5833 140.686 53.3712 140.352 54.0455C140.023 54.7197 139.561 55.2443 138.966 55.6193C138.375 55.9943 137.686 56.1818 136.898 56.1818ZM136.898 54.9773C137.496 54.9773 137.989 54.8239 138.375 54.517C138.761 54.2102 139.047 53.8068 139.233 53.3068C139.419 52.8068 139.511 52.2652 139.511 51.6818C139.511 51.0985 139.419 50.5549 139.233 50.0511C139.047 49.5473 138.761 49.1402 138.375 48.8295C137.989 48.5189 137.496 48.3636 136.898 48.3636C136.299 48.3636 135.807 48.5189 135.42 48.8295C135.034 49.1402 134.748 49.5473 134.562 50.0511C134.377 50.5549 134.284 51.0985 134.284 51.6818C134.284 52.2652 134.377 52.8068 134.562 53.3068C134.748 53.8068 135.034 54.2102 135.42 54.517C135.807 54.8239 136.299 54.9773 136.898 54.9773ZM151.058 56.1818C150.217 56.1818 149.492 55.9962 148.882 55.625C148.276 55.25 147.808 54.7273 147.479 54.0568C147.153 53.3826 146.99 52.5985 146.99 51.7045C146.99 50.8106 147.153 50.0227 147.479 49.3409C147.808 48.6553 148.267 48.1212 148.854 47.7386C149.445 47.3523 150.134 47.1591 150.922 47.1591C151.376 47.1591 151.825 47.2348 152.268 47.3864C152.712 47.5379 153.115 47.7841 153.479 48.125C153.842 48.4621 154.132 48.9091 154.348 49.4659C154.564 50.0227 154.672 50.7083 154.672 51.5227V52.0909H147.945V50.9318H153.308C153.308 50.4394 153.21 50 153.013 49.6136C152.82 49.2273 152.543 48.9223 152.183 48.6989C151.827 48.4754 151.407 48.3636 150.922 48.3636C150.388 48.3636 149.926 48.4962 149.536 48.7614C149.149 49.0227 148.852 49.3636 148.643 49.7841C148.435 50.2045 148.331 50.6553 148.331 51.1364V51.9091C148.331 52.5682 148.445 53.1269 148.672 53.5852C148.903 54.0398 149.223 54.3864 149.632 54.625C150.041 54.8598 150.517 54.9773 151.058 54.9773C151.411 54.9773 151.729 54.928 152.013 54.8295C152.301 54.7273 152.549 54.5758 152.757 54.375C152.965 54.1705 153.126 53.9167 153.24 53.6136L154.536 53.9773C154.399 54.4167 154.17 54.803 153.848 55.1364C153.526 55.4659 153.128 55.7235 152.655 55.9091C152.181 56.0909 151.649 56.1818 151.058 56.1818ZM162.098 47.2727V48.5227H158.053V56H156.712V47.2727H162.098ZM167.148 56.1818C166.36 56.1818 165.669 55.9943 165.074 55.6193C164.483 55.2443 164.021 54.7197 163.688 54.0455C163.358 53.3712 163.193 52.5833 163.193 51.6818C163.193 50.7727 163.358 49.9792 163.688 49.3011C164.021 48.6231 164.483 48.0966 165.074 47.7216C165.669 47.3466 166.36 47.1591 167.148 47.1591C167.936 47.1591 168.625 47.3466 169.216 47.7216C169.811 48.0966 170.273 48.6231 170.602 49.3011C170.936 49.9792 171.102 50.7727 171.102 51.6818C171.102 52.5833 170.936 53.3712 170.602 54.0455C170.273 54.7197 169.811 55.2443 169.216 55.6193C168.625 55.9943 167.936 56.1818 167.148 56.1818ZM167.148 54.9773C167.746 54.9773 168.239 54.8239 168.625 54.517C169.011 54.2102 169.297 53.8068 169.483 53.3068C169.669 52.8068 169.761 52.2652 169.761 51.6818C169.761 51.0985 169.669 50.5549 169.483 50.0511C169.297 49.5473 169.011 49.1402 168.625 48.8295C168.239 48.5189 167.746 48.3636 167.148 48.3636C166.549 48.3636 166.057 48.5189 165.67 48.8295C165.284 49.1402 164.998 49.5473 164.812 50.0511C164.627 50.5549 164.534 51.0985 164.534 51.6818C164.534 52.2652 164.627 52.8068 164.812 53.3068C164.998 53.8068 165.284 54.2102 165.67 54.517C166.057 54.8239 166.549 54.9773 167.148 54.9773ZM181.195 56.1818C180.376 56.1818 179.672 55.9886 179.081 55.6023C178.49 55.2159 178.036 54.6837 177.717 54.0057C177.399 53.3277 177.24 52.553 177.24 51.6818C177.24 50.7955 177.403 50.0133 177.729 49.3352C178.058 48.6534 178.517 48.1212 179.104 47.7386C179.695 47.3523 180.384 47.1591 181.172 47.1591C181.786 47.1591 182.339 47.2727 182.831 47.5C183.323 47.7273 183.727 48.0455 184.041 48.4545C184.356 48.8636 184.551 49.3409 184.626 49.8864H183.286C183.183 49.4886 182.956 49.1364 182.604 48.8295C182.255 48.5189 181.786 48.3636 181.195 48.3636C180.672 48.3636 180.214 48.5 179.82 48.7727C179.429 49.0417 179.125 49.4223 178.905 49.9148C178.689 50.4034 178.581 50.9773 178.581 51.6364C178.581 52.3106 178.687 52.8977 178.899 53.3977C179.115 53.8977 179.418 54.286 179.808 54.5625C180.202 54.839 180.664 54.9773 181.195 54.9773C181.543 54.9773 181.859 54.9167 182.143 54.7955C182.428 54.6742 182.668 54.5 182.865 54.2727C183.062 54.0455 183.202 53.7727 183.286 53.4545H184.626C184.551 53.9697 184.363 54.4337 184.064 54.8466C183.768 55.2557 183.376 55.5814 182.888 55.8239C182.403 56.0625 181.839 56.1818 181.195 56.1818ZM185.899 48.5227V47.2727H192.99V48.5227H190.126V56H188.786V48.5227H185.899ZM197.061 56.2045C196.508 56.2045 196.006 56.1004 195.555 55.892C195.105 55.6799 194.747 55.375 194.482 54.9773C194.216 54.5758 194.084 54.0909 194.084 53.5227C194.084 53.0227 194.182 52.6174 194.379 52.3068C194.576 51.9924 194.839 51.7462 195.169 51.5682C195.499 51.3902 195.862 51.2576 196.26 51.1705C196.661 51.0795 197.065 51.0076 197.47 50.9545C198 50.8864 198.43 50.8352 198.76 50.8011C199.093 50.7633 199.336 50.7008 199.487 50.6136C199.643 50.5265 199.72 50.375 199.72 50.1591V50.1136C199.72 49.553 199.567 49.1174 199.26 48.8068C198.957 48.4962 198.497 48.3409 197.879 48.3409C197.239 48.3409 196.737 48.4811 196.374 48.7614C196.01 49.0417 195.754 49.3409 195.607 49.6591L194.334 49.2045C194.561 48.6742 194.864 48.2614 195.243 47.9659C195.625 47.6667 196.042 47.4583 196.493 47.3409C196.947 47.2197 197.394 47.1591 197.834 47.1591C198.114 47.1591 198.436 47.1932 198.8 47.2614C199.167 47.3258 199.521 47.4602 199.862 47.6648C200.207 47.8693 200.493 48.178 200.72 48.5909C200.947 49.0038 201.061 49.5568 201.061 50.25V56H199.72V54.8182H199.652C199.561 55.0076 199.41 55.2102 199.197 55.4261C198.985 55.642 198.703 55.8258 198.351 55.9773C197.999 56.1288 197.569 56.2045 197.061 56.2045ZM197.266 55C197.796 55 198.243 54.8958 198.607 54.6875C198.974 54.4792 199.25 54.2102 199.436 53.8807C199.625 53.5511 199.72 53.2045 199.72 52.8409V51.6136C199.663 51.6818 199.538 51.7443 199.345 51.8011C199.156 51.8542 198.936 51.9015 198.686 51.9432C198.44 51.9811 198.199 52.0152 197.964 52.0455C197.733 52.072 197.546 52.0947 197.402 52.1136C197.054 52.1591 196.728 52.233 196.425 52.3352C196.125 52.4337 195.883 52.5833 195.697 52.7841C195.516 52.9811 195.425 53.25 195.425 53.5909C195.425 54.0568 195.597 54.4091 195.942 54.6477C196.29 54.8826 196.732 55 197.266 55ZM202.321 48.5227V47.2727H209.412V48.5227H206.548V56H205.207V48.5227H202.321ZM212.527 50.4318H215.027C216.05 50.4318 216.832 50.6913 217.374 51.2102C217.915 51.7292 218.186 52.3864 218.186 53.1818C218.186 53.7045 218.065 54.1799 217.822 54.608C217.58 55.0322 217.224 55.3712 216.754 55.625C216.285 55.875 215.709 56 215.027 56H211.368V47.2727H212.709V54.75H215.027C215.557 54.75 215.993 54.6098 216.334 54.3295C216.675 54.0492 216.845 53.6894 216.845 53.25C216.845 52.7879 216.675 52.411 216.334 52.1193C215.993 51.8277 215.557 51.6818 215.027 51.6818H212.527V50.4318ZM223.886 56.1818C223.045 56.1818 222.32 55.9962 221.71 55.625C221.104 55.25 220.636 54.7273 220.307 54.0568C219.981 53.3826 219.818 52.5985 219.818 51.7045C219.818 50.8106 219.981 50.0227 220.307 49.3409C220.636 48.6553 221.095 48.1212 221.682 47.7386C222.273 47.3523 222.962 47.1591 223.75 47.1591C224.205 47.1591 224.653 47.2348 225.097 47.3864C225.54 47.5379 225.943 47.7841 226.307 48.125C226.67 48.4621 226.96 48.9091 227.176 49.4659C227.392 50.0227 227.5 50.7083 227.5 51.5227V52.0909H220.773V50.9318H226.136C226.136 50.4394 226.038 50 225.841 49.6136C225.648 49.2273 225.371 48.9223 225.011 48.6989C224.655 48.4754 224.235 48.3636 223.75 48.3636C223.216 48.3636 222.754 48.4962 222.364 48.7614C221.977 49.0227 221.68 49.3636 221.472 49.7841C221.263 50.2045 221.159 50.6553 221.159 51.1364V51.9091C221.159 52.5682 221.273 53.1269 221.5 53.5852C221.731 54.0398 222.051 54.3864 222.46 54.625C222.869 54.8598 223.345 54.9773 223.886 54.9773C224.239 54.9773 224.557 54.928 224.841 54.8295C225.129 54.7273 225.377 54.5758 225.585 54.375C225.794 54.1705 225.955 53.9167 226.068 53.6136L227.364 53.9773C227.227 54.4167 226.998 54.803 226.676 55.1364C226.354 55.4659 225.956 55.7235 225.483 55.9091C225.009 56.0909 224.477 56.1818 223.886 56.1818ZM237.585 56.1818C236.797 56.1818 236.106 55.9943 235.511 55.6193C234.92 55.2443 234.458 54.7197 234.125 54.0455C233.795 53.3712 233.631 52.5833 233.631 51.6818C233.631 50.7727 233.795 49.9792 234.125 49.3011C234.458 48.6231 234.92 48.0966 235.511 47.7216C236.106 47.3466 236.797 47.1591 237.585 47.1591C238.373 47.1591 239.063 47.3466 239.653 47.7216C240.248 48.0966 240.71 48.6231 241.04 49.3011C241.373 49.9792 241.54 50.7727 241.54 51.6818C241.54 52.5833 241.373 53.3712 241.04 54.0455C240.71 54.7197 240.248 55.2443 239.653 55.6193C239.063 55.9943 238.373 56.1818 237.585 56.1818ZM237.585 54.9773C238.184 54.9773 238.676 54.8239 239.062 54.517C239.449 54.2102 239.735 53.8068 239.92 53.3068C240.106 52.8068 240.199 52.2652 240.199 51.6818C240.199 51.0985 240.106 50.5549 239.92 50.0511C239.735 49.5473 239.449 49.1402 239.062 48.8295C238.676 48.5189 238.184 48.3636 237.585 48.3636C236.987 48.3636 236.494 48.5189 236.108 48.8295C235.722 49.1402 235.436 49.5473 235.25 50.0511C235.064 50.5549 234.972 51.0985 234.972 51.6818C234.972 52.2652 235.064 52.8068 235.25 53.3068C235.436 53.8068 235.722 54.2102 236.108 54.517C236.494 54.8239 236.987 54.9773 237.585 54.9773ZM248.087 56V47.2727H254.95V56H253.609V48.5227H249.428V56H248.087ZM257.399 59.2727V47.2727H258.695V48.6591H258.854C258.952 48.5076 259.089 48.3144 259.263 48.0795C259.441 47.8409 259.695 47.6288 260.024 47.4432C260.357 47.2538 260.808 47.1591 261.376 47.1591C262.111 47.1591 262.759 47.3428 263.32 47.7102C263.88 48.0777 264.318 48.5985 264.632 49.2727C264.946 49.947 265.104 50.7424 265.104 51.6591C265.104 52.5833 264.946 53.3845 264.632 54.0625C264.318 54.7367 263.882 55.2595 263.325 55.6307C262.768 55.9981 262.126 56.1818 261.399 56.1818C260.839 56.1818 260.39 56.089 260.053 55.9034C259.715 55.714 259.456 55.5 259.274 55.2614C259.092 55.0189 258.952 54.8182 258.854 54.6591H258.74V59.2727H257.399ZM258.717 51.6364C258.717 52.2955 258.814 52.8769 259.007 53.3807C259.2 53.8807 259.482 54.2727 259.854 54.5568C260.225 54.8371 260.679 54.9773 261.217 54.9773C261.778 54.9773 262.246 54.8295 262.621 54.5341C263 54.2348 263.284 53.8333 263.473 53.3295C263.666 52.822 263.763 52.2576 263.763 51.6364C263.763 51.0227 263.668 50.4697 263.479 49.9773C263.293 49.4811 263.011 49.089 262.632 48.8011C262.257 48.5095 261.786 48.3636 261.217 48.3636C260.672 48.3636 260.214 48.5019 259.842 48.7784C259.471 49.0511 259.191 49.4337 259.001 49.9261C258.812 50.4148 258.717 50.9848 258.717 51.6364ZM270.695 56.1818C269.907 56.1818 269.215 55.9943 268.621 55.6193C268.03 55.2443 267.568 54.7197 267.234 54.0455C266.905 53.3712 266.74 52.5833 266.74 51.6818C266.74 50.7727 266.905 49.9792 267.234 49.3011C267.568 48.6231 268.03 48.0966 268.621 47.7216C269.215 47.3466 269.907 47.1591 270.695 47.1591C271.482 47.1591 272.172 47.3466 272.763 47.7216C273.357 48.0966 273.82 48.6231 274.149 49.3011C274.482 49.9792 274.649 50.7727 274.649 51.6818C274.649 52.5833 274.482 53.3712 274.149 54.0455C273.82 54.7197 273.357 55.2443 272.763 55.6193C272.172 55.9943 271.482 56.1818 270.695 56.1818ZM270.695 54.9773C271.293 54.9773 271.786 54.8239 272.172 54.517C272.558 54.2102 272.844 53.8068 273.03 53.3068C273.215 52.8068 273.308 52.2652 273.308 51.6818C273.308 51.0985 273.215 50.5549 273.03 50.0511C272.844 49.5473 272.558 49.1402 272.172 48.8295C271.786 48.5189 271.293 48.3636 270.695 48.3636C270.096 48.3636 269.604 48.5189 269.217 48.8295C268.831 49.1402 268.545 49.5473 268.359 50.0511C268.174 50.5549 268.081 51.0985 268.081 51.6818C268.081 52.2652 268.174 52.8068 268.359 53.3068C268.545 53.8068 268.831 54.2102 269.217 54.517C269.604 54.8239 270.096 54.9773 270.695 54.9773ZM276.696 56V47.2727H278.037V51.0682H278.923L282.06 47.2727H283.787L280.264 51.4773L283.832 56H282.105L279.241 52.3182H278.037V56H276.696ZM285.29 59.2727V47.2727H286.585V48.6591H286.744C286.843 48.5076 286.979 48.3144 287.153 48.0795C287.331 47.8409 287.585 47.6288 287.915 47.4432C288.248 47.2538 288.699 47.1591 289.267 47.1591C290.002 47.1591 290.65 47.3428 291.21 47.7102C291.771 48.0777 292.208 48.5985 292.523 49.2727C292.837 49.947 292.994 50.7424 292.994 51.6591C292.994 52.5833 292.837 53.3845 292.523 54.0625C292.208 54.7367 291.773 55.2595 291.216 55.6307C290.659 55.9981 290.017 56.1818 289.29 56.1818C288.729 56.1818 288.28 56.089 287.943 55.9034C287.606 55.714 287.347 55.5 287.165 55.2614C286.983 55.0189 286.843 54.8182 286.744 54.6591H286.631V59.2727H285.29ZM286.608 51.6364C286.608 52.2955 286.705 52.8769 286.898 53.3807C287.091 53.8807 287.373 54.2727 287.744 54.5568C288.116 54.8371 288.57 54.9773 289.108 54.9773C289.669 54.9773 290.136 54.8295 290.511 54.5341C290.89 54.2348 291.174 53.8333 291.364 53.3295C291.557 52.822 291.653 52.2576 291.653 51.6364C291.653 51.0227 291.559 50.4697 291.369 49.9773C291.184 49.4811 290.902 49.089 290.523 48.8011C290.148 48.5095 289.676 48.3636 289.108 48.3636C288.563 48.3636 288.104 48.5019 287.733 48.7784C287.362 49.0511 287.081 49.4337 286.892 49.9261C286.703 50.4148 286.608 50.9848 286.608 51.6364ZM297.608 56.2045C297.055 56.2045 296.553 56.1004 296.102 55.892C295.652 55.6799 295.294 55.375 295.028 54.9773C294.763 54.5758 294.631 54.0909 294.631 53.5227C294.631 53.0227 294.729 52.6174 294.926 52.3068C295.123 51.9924 295.386 51.7462 295.716 51.5682C296.045 51.3902 296.409 51.2576 296.807 51.1705C297.208 51.0795 297.612 51.0076 298.017 50.9545C298.547 50.8864 298.977 50.8352 299.307 50.8011C299.64 50.7633 299.883 50.7008 300.034 50.6136C300.189 50.5265 300.267 50.375 300.267 50.1591V50.1136C300.267 49.553 300.114 49.1174 299.807 48.8068C299.504 48.4962 299.044 48.3409 298.426 48.3409C297.786 48.3409 297.284 48.4811 296.92 48.7614C296.557 49.0417 296.301 49.3409 296.153 49.6591L294.881 49.2045C295.108 48.6742 295.411 48.2614 295.79 47.9659C296.172 47.6667 296.589 47.4583 297.04 47.3409C297.494 47.2197 297.941 47.1591 298.381 47.1591C298.661 47.1591 298.983 47.1932 299.347 47.2614C299.714 47.3258 300.068 47.4602 300.409 47.6648C300.754 47.8693 301.04 48.178 301.267 48.5909C301.494 49.0038 301.608 49.5568 301.608 50.25V56H300.267V54.8182H300.199C300.108 55.0076 299.956 55.2102 299.744 55.4261C299.532 55.642 299.25 55.8258 298.898 55.9773C298.545 56.1288 298.116 56.2045 297.608 56.2045ZM297.812 55C298.343 55 298.79 54.8958 299.153 54.6875C299.521 54.4792 299.797 54.2102 299.983 53.8807C300.172 53.5511 300.267 53.2045 300.267 52.8409V51.6136C300.21 51.6818 300.085 51.7443 299.892 51.8011C299.703 51.8542 299.483 51.9015 299.233 51.9432C298.987 51.9811 298.746 52.0152 298.511 52.0455C298.28 52.072 298.093 52.0947 297.949 52.1136C297.6 52.1591 297.275 52.233 296.972 52.3352C296.672 52.4337 296.43 52.5833 296.244 52.7841C296.063 52.9811 295.972 53.25 295.972 53.5909C295.972 54.0568 296.144 54.4091 296.489 54.6477C296.837 54.8826 297.278 55 297.812 55ZM307.601 56.1818C306.783 56.1818 306.078 55.9886 305.487 55.6023C304.896 55.2159 304.442 54.6837 304.124 54.0057C303.805 53.3277 303.646 52.553 303.646 51.6818C303.646 50.7955 303.809 50.0133 304.135 49.3352C304.464 48.6534 304.923 48.1212 305.51 47.7386C306.101 47.3523 306.79 47.1591 307.578 47.1591C308.192 47.1591 308.745 47.2727 309.237 47.5C309.73 47.7273 310.133 48.0455 310.447 48.4545C310.762 48.8636 310.957 49.3409 311.033 49.8864H309.692C309.589 49.4886 309.362 49.1364 309.01 48.8295C308.661 48.5189 308.192 48.3636 307.601 48.3636C307.078 48.3636 306.62 48.5 306.226 48.7727C305.836 49.0417 305.531 49.4223 305.311 49.9148C305.095 50.4034 304.987 50.9773 304.987 51.6364C304.987 52.3106 305.093 52.8977 305.305 53.3977C305.521 53.8977 305.824 54.286 306.214 54.5625C306.608 54.839 307.071 54.9773 307.601 54.9773C307.949 54.9773 308.266 54.9167 308.55 54.7955C308.834 54.6742 309.074 54.5 309.271 54.2727C309.468 54.0455 309.608 53.7727 309.692 53.4545H311.033C310.957 53.9697 310.769 54.4337 310.47 54.8466C310.175 55.2557 309.783 55.5814 309.294 55.8239C308.809 56.0625 308.245 56.1818 307.601 56.1818ZM317.993 50.3864V51.6364H312.902V50.3864H317.993ZM0.727273 70.5227V69.2727H7.81818V70.5227H4.95455V78H3.61364V70.5227H0.727273ZM11.1151 76.0227L15.3196 69.2727H16.8651V78H15.5241V71.25L11.3423 78H9.77415V69.2727H11.1151V76.0227ZM25.1619 73.0227V74.2727H20.3438V73.0227H25.1619ZM20.6619 69.2727V78H19.321V69.2727H20.6619ZM26.1847 69.2727V78H24.8438V69.2727H26.1847ZM31.2017 78.2045C30.6487 78.2045 30.1468 78.1004 29.696 77.892C29.2453 77.6799 28.8873 77.375 28.6222 76.9773C28.357 76.5758 28.2244 76.0909 28.2244 75.5227C28.2244 75.0227 28.3229 74.6174 28.5199 74.3068C28.7169 73.9924 28.9801 73.7462 29.3097 73.5682C29.6392 73.3902 30.0028 73.2576 30.4006 73.1705C30.8021 73.0795 31.2055 73.0076 31.6108 72.9545C32.1411 72.8864 32.571 72.8352 32.9006 72.8011C33.2339 72.7633 33.4763 72.7008 33.6278 72.6136C33.7831 72.5265 33.8608 72.375 33.8608 72.1591V72.1136C33.8608 71.553 33.7074 71.1174 33.4006 70.8068C33.0975 70.4962 32.6373 70.3409 32.0199 70.3409C31.3797 70.3409 30.8778 70.4811 30.5142 70.7614C30.1506 71.0417 29.8949 71.3409 29.7472 71.6591L28.4744 71.2045C28.7017 70.6742 29.0047 70.2614 29.3835 69.9659C29.7661 69.6667 30.1828 69.4583 30.6335 69.3409C31.0881 69.2197 31.535 69.1591 31.9744 69.1591C32.2547 69.1591 32.5767 69.1932 32.9403 69.2614C33.3078 69.3258 33.6619 69.4602 34.0028 69.6648C34.3475 69.8693 34.6335 70.178 34.8608 70.5909C35.0881 71.0038 35.2017 71.5568 35.2017 72.25V78H33.8608V76.8182H33.7926C33.7017 77.0076 33.5502 77.2102 33.3381 77.4261C33.1259 77.642 32.8438 77.8258 32.4915 77.9773C32.1392 78.1288 31.7093 78.2045 31.2017 78.2045ZM31.4062 77C31.9366 77 32.3835 76.8958 32.7472 76.6875C33.1146 76.4792 33.3911 76.2102 33.5767 75.8807C33.7661 75.5511 33.8608 75.2045 33.8608 74.8409V73.6136C33.804 73.6818 33.679 73.7443 33.4858 73.8011C33.2964 73.8542 33.0767 73.9015 32.8267 73.9432C32.5805 73.9811 32.34 74.0152 32.1051 74.0455C31.8741 74.072 31.6866 74.0947 31.5426 74.1136C31.1941 74.1591 30.8684 74.233 30.5653 74.3352C30.2661 74.4337 30.0237 74.5833 29.8381 74.7841C29.6563 74.9811 29.5653 75.25 29.5653 75.5909C29.5653 76.0568 29.7377 76.4091 30.0824 76.6477C30.4309 76.8826 30.8722 77 31.4062 77ZM44.5128 69.2727V76.75H45.7401V80.8182H44.3991V78H37.6491V69.2727H38.9901V76.75H43.1719V69.2727H44.5128ZM49.1463 76.0227L53.3509 69.2727H54.8963V78H53.5554V71.25L49.3736 78H47.8054V69.2727H49.1463V76.0227ZM58.6932 76.0227L62.8977 69.2727H64.4432V78H63.1023V71.25L58.9205 78H57.3523V69.2727H58.6932V76.0227ZM77.2401 73.0227V74.2727H72.4219V73.0227H77.2401ZM72.7401 69.2727V78H71.3991V69.2727H72.7401ZM78.2628 69.2727V78H76.9219V69.2727H78.2628ZM83.2798 78.2045C82.7268 78.2045 82.2249 78.1004 81.7741 77.892C81.3234 77.6799 80.9654 77.375 80.7003 76.9773C80.4351 76.5758 80.3026 76.0909 80.3026 75.5227C80.3026 75.0227 80.401 74.6174 80.598 74.3068C80.795 73.9924 81.0582 73.7462 81.3878 73.5682C81.7173 73.3902 82.081 73.2576 82.4787 73.1705C82.8802 73.0795 83.2836 73.0076 83.6889 72.9545C84.2192 72.8864 84.6491 72.8352 84.9787 72.8011C85.312 72.7633 85.5545 72.7008 85.706 72.6136C85.8613 72.5265 85.9389 72.375 85.9389 72.1591V72.1136C85.9389 71.553 85.7855 71.1174 85.4787 70.8068C85.1757 70.4962 84.7154 70.3409 84.098 70.3409C83.4579 70.3409 82.956 70.4811 82.5923 70.7614C82.2287 71.0417 81.973 71.3409 81.8253 71.6591L80.5526 71.2045C80.7798 70.6742 81.0829 70.2614 81.4616 69.9659C81.8442 69.6667 82.2609 69.4583 82.7116 69.3409C83.1662 69.2197 83.6132 69.1591 84.0526 69.1591C84.3329 69.1591 84.6548 69.1932 85.0185 69.2614C85.3859 69.3258 85.7401 69.4602 86.081 69.6648C86.4257 69.8693 86.7116 70.178 86.9389 70.5909C87.1662 71.0038 87.2798 71.5568 87.2798 72.25V78H85.9389V76.8182H85.8707C85.7798 77.0076 85.6283 77.2102 85.4162 77.4261C85.2041 77.642 84.9219 77.8258 84.5696 77.9773C84.2173 78.1288 83.7874 78.2045 83.2798 78.2045ZM83.4844 77C84.0147 77 84.4616 76.8958 84.8253 76.6875C85.1927 76.4792 85.4692 76.2102 85.6548 75.8807C85.8442 75.5511 85.9389 75.2045 85.9389 74.8409V73.6136C85.8821 73.6818 85.7571 73.7443 85.5639 73.8011C85.3745 73.8542 85.1548 73.9015 84.9048 73.9432C84.6586 73.9811 84.4181 74.0152 84.1832 74.0455C83.9522 74.072 83.7647 74.0947 83.6207 74.1136C83.2723 74.1591 82.9465 74.233 82.6435 74.3352C82.3442 74.4337 82.1018 74.5833 81.9162 74.7841C81.7344 74.9811 81.6435 75.25 81.6435 75.5909C81.6435 76.0568 81.8158 76.4091 82.1605 76.6477C82.509 76.8826 82.9503 77 83.4844 77ZM96.2045 66L96.8864 66.8182C96.6212 67.0758 96.3144 67.2557 95.9659 67.358C95.6174 67.4602 95.2235 67.5227 94.7841 67.5455C94.3447 67.5682 93.8561 67.5909 93.3182 67.6136C92.7121 67.6364 92.2102 67.7841 91.8125 68.0568C91.4148 68.3295 91.108 68.7235 90.892 69.2386C90.6761 69.7538 90.5379 70.3864 90.4773 71.1364H90.5909C90.8864 70.5909 91.2955 70.1894 91.8182 69.9318C92.3409 69.6742 92.9015 69.5455 93.5 69.5455C94.1818 69.5455 94.7955 69.7045 95.3409 70.0227C95.8864 70.3409 96.3182 70.8125 96.6364 71.4375C96.9545 72.0625 97.1136 72.8333 97.1136 73.75C97.1136 74.6629 96.9508 75.4508 96.625 76.1136C96.303 76.7765 95.8504 77.2879 95.267 77.6477C94.6875 78.0038 94.0076 78.1818 93.2273 78.1818C92.447 78.1818 91.7633 77.9981 91.1761 77.6307C90.589 77.2595 90.1326 76.7102 89.8068 75.983C89.4811 75.2519 89.3182 74.3485 89.3182 73.2727V72.3409C89.3182 70.3977 89.6477 68.9242 90.3068 67.9205C90.9697 66.9167 91.9659 66.3977 93.2955 66.3636C93.7652 66.3485 94.1837 66.3447 94.5511 66.3523C94.9186 66.3598 95.2386 66.3428 95.5114 66.3011C95.7841 66.2595 96.0152 66.1591 96.2045 66ZM93.2273 76.9773C93.7538 76.9773 94.2064 76.8447 94.5852 76.5795C94.9678 76.3144 95.2614 75.9413 95.4659 75.4602C95.6705 74.9754 95.7727 74.4053 95.7727 73.75C95.7727 73.1136 95.6686 72.572 95.4602 72.125C95.2557 71.678 94.9621 71.3371 94.5795 71.1023C94.197 70.8674 93.7386 70.75 93.2045 70.75C92.8144 70.75 92.464 70.8163 92.1534 70.9489C91.8428 71.0814 91.5777 71.2765 91.358 71.5341C91.1383 71.7917 90.9678 72.1061 90.8466 72.4773C90.7292 72.8485 90.6667 73.2727 90.6591 73.75C90.6591 74.7273 90.8883 75.5095 91.3466 76.0966C91.8049 76.6837 92.4318 76.9773 93.2273 76.9773ZM99.1648 81.2727V69.2727H100.46V70.6591H100.619C100.718 70.5076 100.854 70.3144 101.028 70.0795C101.206 69.8409 101.46 69.6288 101.79 69.4432C102.123 69.2538 102.574 69.1591 103.142 69.1591C103.877 69.1591 104.525 69.3428 105.085 69.7102C105.646 70.0777 106.083 70.5985 106.398 71.2727C106.712 71.947 106.869 72.7424 106.869 73.6591C106.869 74.5833 106.712 75.3845 106.398 76.0625C106.083 76.7367 105.648 77.2595 105.091 77.6307C104.534 77.9981 103.892 78.1818 103.165 78.1818C102.604 78.1818 102.155 78.089 101.818 77.9034C101.481 77.714 101.222 77.5 101.04 77.2614C100.858 77.0189 100.718 76.8182 100.619 76.6591H100.506V81.2727H99.1648ZM100.483 73.6364C100.483 74.2955 100.58 74.8769 100.773 75.3807C100.966 75.8807 101.248 76.2727 101.619 76.5568C101.991 76.8371 102.445 76.9773 102.983 76.9773C103.544 76.9773 104.011 76.8295 104.386 76.5341C104.765 76.2348 105.049 75.8333 105.239 75.3295C105.432 74.822 105.528 74.2576 105.528 73.6364C105.528 73.0227 105.434 72.4697 105.244 71.9773C105.059 71.4811 104.777 71.089 104.398 70.8011C104.023 70.5095 103.551 70.3636 102.983 70.3636C102.438 70.3636 101.979 70.5019 101.608 70.7784C101.237 71.0511 100.956 71.4337 100.767 71.9261C100.578 72.4148 100.483 72.9848 100.483 73.6364ZM111.483 78.2045C110.93 78.2045 110.428 78.1004 109.977 77.892C109.527 77.6799 109.169 77.375 108.903 76.9773C108.638 76.5758 108.506 76.0909 108.506 75.5227C108.506 75.0227 108.604 74.6174 108.801 74.3068C108.998 73.9924 109.261 73.7462 109.591 73.5682C109.92 73.3902 110.284 73.2576 110.682 73.1705C111.083 73.0795 111.487 73.0076 111.892 72.9545C112.422 72.8864 112.852 72.8352 113.182 72.8011C113.515 72.7633 113.758 72.7008 113.909 72.6136C114.064 72.5265 114.142 72.375 114.142 72.1591V72.1136C114.142 71.553 113.989 71.1174 113.682 70.8068C113.379 70.4962 112.919 70.3409 112.301 70.3409C111.661 70.3409 111.159 70.4811 110.795 70.7614C110.432 71.0417 110.176 71.3409 110.028 71.6591L108.756 71.2045C108.983 70.6742 109.286 70.2614 109.665 69.9659C110.047 69.6667 110.464 69.4583 110.915 69.3409C111.369 69.2197 111.816 69.1591 112.256 69.1591C112.536 69.1591 112.858 69.1932 113.222 69.2614C113.589 69.3258 113.943 69.4602 114.284 69.6648C114.629 69.8693 114.915 70.178 115.142 70.5909C115.369 71.0038 115.483 71.5568 115.483 72.25V78H114.142V76.8182H114.074C113.983 77.0076 113.831 77.2102 113.619 77.4261C113.407 77.642 113.125 77.8258 112.773 77.9773C112.42 78.1288 111.991 78.2045 111.483 78.2045ZM111.688 77C112.218 77 112.665 76.8958 113.028 76.6875C113.396 76.4792 113.672 76.2102 113.858 75.8807C114.047 75.5511 114.142 75.2045 114.142 74.8409V73.6136C114.085 73.6818 113.96 73.7443 113.767 73.8011C113.578 73.8542 113.358 73.9015 113.108 73.9432C112.862 73.9811 112.621 74.0152 112.386 74.0455C112.155 74.072 111.968 74.0947 111.824 74.1136C111.475 74.1591 111.15 74.233 110.847 74.3352C110.547 74.4337 110.305 74.5833 110.119 74.7841C109.938 74.9811 109.847 75.25 109.847 75.5909C109.847 76.0568 110.019 76.4091 110.364 76.6477C110.712 76.8826 111.153 77 111.688 77ZM117.158 78V76.75H117.476C117.737 76.75 117.955 76.6989 118.129 76.5966C118.304 76.4905 118.444 76.3068 118.55 76.0455C118.66 75.7803 118.743 75.4129 118.8 74.9432C118.86 74.4697 118.904 73.8674 118.93 73.1364L119.089 69.2727H124.908V78H123.567V70.5227H120.362L120.226 73.6364C120.196 74.3523 120.131 74.983 120.033 75.5284C119.938 76.0701 119.792 76.5246 119.595 76.892C119.402 77.2595 119.144 77.536 118.822 77.7216C118.5 77.9072 118.097 78 117.612 78H117.158ZM135.709 78.1591C135.232 78.1515 134.754 78.0606 134.277 77.8864C133.8 77.7121 133.364 77.4186 132.97 77.0057C132.576 76.589 132.26 76.0265 132.021 75.3182C131.783 74.6061 131.663 73.7121 131.663 72.6364C131.663 71.6061 131.76 70.6932 131.953 69.8977C132.146 69.0985 132.427 68.4261 132.794 67.8807C133.161 67.3314 133.605 66.9148 134.124 66.6307C134.646 66.3466 135.235 66.2045 135.891 66.2045C136.542 66.2045 137.122 66.3352 137.629 66.5966C138.141 66.8542 138.557 67.214 138.879 67.6761C139.201 68.1383 139.41 68.6705 139.504 69.2727H138.118C137.989 68.75 137.739 68.3163 137.368 67.9716C136.997 67.6269 136.504 67.4545 135.891 67.4545C134.989 67.4545 134.279 67.8466 133.76 68.6307C133.245 69.4148 132.985 70.5152 132.982 71.9318H133.072C133.285 71.6098 133.536 71.3352 133.828 71.108C134.124 70.8769 134.449 70.6989 134.805 70.5739C135.161 70.4489 135.538 70.3864 135.936 70.3864C136.603 70.3864 137.213 70.553 137.766 70.8864C138.319 71.2159 138.762 71.6723 139.095 72.2557C139.429 72.8352 139.595 73.5 139.595 74.25C139.595 74.9697 139.434 75.6288 139.112 76.2273C138.79 76.822 138.338 77.2955 137.754 77.6477C137.175 77.9962 136.493 78.1667 135.709 78.1591ZM135.709 76.9091C136.186 76.9091 136.614 76.7898 136.993 76.5511C137.375 76.3125 137.677 75.9924 137.896 75.5909C138.12 75.1894 138.232 74.7424 138.232 74.25C138.232 73.7689 138.124 73.3314 137.908 72.9375C137.696 72.5398 137.402 72.2235 137.027 71.9886C136.656 71.7538 136.232 71.6364 135.754 71.6364C135.394 71.6364 135.059 71.7083 134.749 71.8523C134.438 71.9924 134.165 72.1856 133.93 72.4318C133.699 72.678 133.518 72.9602 133.385 73.2784C133.252 73.5928 133.186 73.9242 133.186 74.2727C133.186 74.7348 133.294 75.1667 133.51 75.5682C133.73 75.9697 134.029 76.2936 134.408 76.5398C134.79 76.786 135.224 76.9091 135.709 76.9091ZM145.92 66.3636V78H144.511V67.8409H144.443L141.602 69.7273V68.2955L144.511 66.3636H145.92ZM158.562 76.1818L161.608 69.2727H162.881L159.108 78H158.017L154.312 69.2727H155.562L158.562 76.1818ZM155.131 69.2727V78H153.79V69.2727H155.131ZM161.994 78V69.2727H163.335V78H161.994ZM165.017 78V76.75H165.335C165.597 76.75 165.814 76.6989 165.989 76.5966C166.163 76.4905 166.303 76.3068 166.409 76.0455C166.519 75.7803 166.602 75.4129 166.659 74.9432C166.72 74.4697 166.763 73.8674 166.79 73.1364L166.949 69.2727H172.767V78H171.426V70.5227H168.222L168.085 73.6364C168.055 74.3523 167.991 74.983 167.892 75.5284C167.797 76.0701 167.652 76.5246 167.455 76.892C167.261 77.2595 167.004 77.536 166.682 77.7216C166.36 77.9072 165.956 78 165.472 78H165.017ZM181.068 73.0227V74.2727H176.25V73.0227H181.068ZM176.568 69.2727V78H175.227V69.2727H176.568ZM182.091 69.2727V78H180.75V69.2727H182.091ZM189.04 78V69.2727H195.903V78H194.562V70.5227H190.381V78H189.04ZM198.352 81.2727V69.2727H199.648V70.6591H199.807C199.905 70.5076 200.042 70.3144 200.216 70.0795C200.394 69.8409 200.648 69.6288 200.977 69.4432C201.311 69.2538 201.761 69.1591 202.33 69.1591C203.064 69.1591 203.712 69.3428 204.273 69.7102C204.833 70.0777 205.271 70.5985 205.585 71.2727C205.9 71.947 206.057 72.7424 206.057 73.6591C206.057 74.5833 205.9 75.3845 205.585 76.0625C205.271 76.7367 204.835 77.2595 204.278 77.6307C203.722 77.9981 203.08 78.1818 202.352 78.1818C201.792 78.1818 201.343 78.089 201.006 77.9034C200.669 77.714 200.409 77.5 200.227 77.2614C200.045 77.0189 199.905 76.8182 199.807 76.6591H199.693V81.2727H198.352ZM199.67 73.6364C199.67 74.2955 199.767 74.8769 199.96 75.3807C200.153 75.8807 200.436 76.2727 200.807 76.5568C201.178 76.8371 201.633 76.9773 202.17 76.9773C202.731 76.9773 203.199 76.8295 203.574 76.5341C203.953 76.2348 204.237 75.8333 204.426 75.3295C204.619 74.822 204.716 74.2576 204.716 73.6364C204.716 73.0227 204.621 72.4697 204.432 71.9773C204.246 71.4811 203.964 71.089 203.585 70.8011C203.21 70.5095 202.739 70.3636 202.17 70.3636C201.625 70.3636 201.167 70.5019 200.795 70.7784C200.424 71.0511 200.144 71.4337 199.955 71.9261C199.765 72.4148 199.67 72.9848 199.67 73.6364ZM211.648 78.1818C210.86 78.1818 210.169 77.9943 209.574 77.6193C208.983 77.2443 208.521 76.7197 208.188 76.0455C207.858 75.3712 207.693 74.5833 207.693 73.6818C207.693 72.7727 207.858 71.9792 208.188 71.3011C208.521 70.6231 208.983 70.0966 209.574 69.7216C210.169 69.3466 210.86 69.1591 211.648 69.1591C212.436 69.1591 213.125 69.3466 213.716 69.7216C214.311 70.0966 214.773 70.6231 215.102 71.3011C215.436 71.9792 215.602 72.7727 215.602 73.6818C215.602 74.5833 215.436 75.3712 215.102 76.0455C214.773 76.7197 214.311 77.2443 213.716 77.6193C213.125 77.9943 212.436 78.1818 211.648 78.1818ZM211.648 76.9773C212.246 76.9773 212.739 76.8239 213.125 76.517C213.511 76.2102 213.797 75.8068 213.983 75.3068C214.169 74.8068 214.261 74.2652 214.261 73.6818C214.261 73.0985 214.169 72.5549 213.983 72.0511C213.797 71.5473 213.511 71.1402 213.125 70.8295C212.739 70.5189 212.246 70.3636 211.648 70.3636C211.049 70.3636 210.557 70.5189 210.17 70.8295C209.784 71.1402 209.498 71.5473 209.312 72.0511C209.127 72.5549 209.034 73.0985 209.034 73.6818C209.034 74.2652 209.127 74.8068 209.312 75.3068C209.498 75.8068 209.784 76.2102 210.17 76.517C210.557 76.8239 211.049 76.9773 211.648 76.9773ZM221.195 78.1818C220.376 78.1818 219.672 77.9886 219.081 77.6023C218.49 77.2159 218.036 76.6837 217.717 76.0057C217.399 75.3277 217.24 74.553 217.24 73.6818C217.24 72.7955 217.403 72.0133 217.729 71.3352C218.058 70.6534 218.517 70.1212 219.104 69.7386C219.695 69.3523 220.384 69.1591 221.172 69.1591C221.786 69.1591 222.339 69.2727 222.831 69.5C223.323 69.7273 223.727 70.0455 224.041 70.4545C224.356 70.8636 224.551 71.3409 224.626 71.8864H223.286C223.183 71.4886 222.956 71.1364 222.604 70.8295C222.255 70.5189 221.786 70.3636 221.195 70.3636C220.672 70.3636 220.214 70.5 219.82 70.7727C219.429 71.0417 219.125 71.4223 218.905 71.9148C218.689 72.4034 218.581 72.9773 218.581 73.6364C218.581 74.3106 218.687 74.8977 218.899 75.3977C219.115 75.8977 219.418 76.286 219.808 76.5625C220.202 76.839 220.664 76.9773 221.195 76.9773C221.543 76.9773 221.859 76.9167 222.143 76.7955C222.428 76.6742 222.668 76.5 222.865 76.2727C223.062 76.0455 223.202 75.7727 223.286 75.4545H224.626C224.551 75.9697 224.363 76.4337 224.064 76.8466C223.768 77.2557 223.376 77.5814 222.888 77.8239C222.403 78.0625 221.839 78.1818 221.195 78.1818ZM231.359 76.1818L234.405 69.2727H235.678L231.905 78H230.814L227.109 69.2727H228.359L231.359 76.1818ZM227.928 69.2727V78H226.587V69.2727H227.928ZM234.791 78V69.2727H236.132V78H234.791ZM242.132 78.1818C241.344 78.1818 240.653 77.9943 240.058 77.6193C239.467 77.2443 239.005 76.7197 238.672 76.0455C238.342 75.3712 238.178 74.5833 238.178 73.6818C238.178 72.7727 238.342 71.9792 238.672 71.3011C239.005 70.6231 239.467 70.0966 240.058 69.7216C240.653 69.3466 241.344 69.1591 242.132 69.1591C242.92 69.1591 243.609 69.3466 244.2 69.7216C244.795 70.0966 245.257 70.6231 245.587 71.3011C245.92 71.9792 246.087 72.7727 246.087 73.6818C246.087 74.5833 245.92 75.3712 245.587 76.0455C245.257 76.7197 244.795 77.2443 244.2 77.6193C243.609 77.9943 242.92 78.1818 242.132 78.1818ZM242.132 76.9773C242.731 76.9773 243.223 76.8239 243.609 76.517C243.996 76.2102 244.282 75.8068 244.467 75.3068C244.653 74.8068 244.746 74.2652 244.746 73.6818C244.746 73.0985 244.653 72.5549 244.467 72.0511C244.282 71.5473 243.996 71.1402 243.609 70.8295C243.223 70.5189 242.731 70.3636 242.132 70.3636C241.534 70.3636 241.041 70.5189 240.655 70.8295C240.268 71.1402 239.982 71.5473 239.797 72.0511C239.611 72.5549 239.518 73.0985 239.518 73.6818C239.518 74.2652 239.611 74.8068 239.797 75.3068C239.982 75.8068 240.268 76.2102 240.655 76.517C241.041 76.8239 241.534 76.9773 242.132 76.9773ZM246.993 70.5227V69.2727H254.084V70.5227H251.22V78H249.879V70.5227H246.993ZM256.04 81.2727V69.2727H257.335V70.6591H257.494C257.593 70.5076 257.729 70.3144 257.903 70.0795C258.081 69.8409 258.335 69.6288 258.665 69.4432C258.998 69.2538 259.449 69.1591 260.017 69.1591C260.752 69.1591 261.4 69.3428 261.96 69.7102C262.521 70.0777 262.958 70.5985 263.273 71.2727C263.587 71.947 263.744 72.7424 263.744 73.6591C263.744 74.5833 263.587 75.3845 263.273 76.0625C262.958 76.7367 262.523 77.2595 261.966 77.6307C261.409 77.9981 260.767 78.1818 260.04 78.1818C259.479 78.1818 259.03 78.089 258.693 77.9034C258.356 77.714 258.097 77.5 257.915 77.2614C257.733 77.0189 257.593 76.8182 257.494 76.6591H257.381V81.2727H256.04ZM257.358 73.6364C257.358 74.2955 257.455 74.8769 257.648 75.3807C257.841 75.8807 258.123 76.2727 258.494 76.5568C258.866 76.8371 259.32 76.9773 259.858 76.9773C260.419 76.9773 260.886 76.8295 261.261 76.5341C261.64 76.2348 261.924 75.8333 262.114 75.3295C262.307 74.822 262.403 74.2576 262.403 73.6364C262.403 73.0227 262.309 72.4697 262.119 71.9773C261.934 71.4811 261.652 71.089 261.273 70.8011C260.898 70.5095 260.426 70.3636 259.858 70.3636C259.313 70.3636 258.854 70.5019 258.483 70.7784C258.112 71.0511 257.831 71.4337 257.642 71.9261C257.453 72.4148 257.358 72.9848 257.358 73.6364ZM269.335 78.1818C268.547 78.1818 267.856 77.9943 267.261 77.6193C266.67 77.2443 266.208 76.7197 265.875 76.0455C265.545 75.3712 265.381 74.5833 265.381 73.6818C265.381 72.7727 265.545 71.9792 265.875 71.3011C266.208 70.6231 266.67 70.0966 267.261 69.7216C267.856 69.3466 268.547 69.1591 269.335 69.1591C270.123 69.1591 270.813 69.3466 271.403 69.7216C271.998 70.0966 272.46 70.6231 272.79 71.3011C273.123 71.9792 273.29 72.7727 273.29 73.6818C273.29 74.5833 273.123 75.3712 272.79 76.0455C272.46 76.7197 271.998 77.2443 271.403 77.6193C270.813 77.9943 270.123 78.1818 269.335 78.1818ZM269.335 76.9773C269.934 76.9773 270.426 76.8239 270.812 76.517C271.199 76.2102 271.485 75.8068 271.67 75.3068C271.856 74.8068 271.949 74.2652 271.949 73.6818C271.949 73.0985 271.856 72.5549 271.67 72.0511C271.485 71.5473 271.199 71.1402 270.812 70.8295C270.426 70.5189 269.934 70.3636 269.335 70.3636C268.737 70.3636 268.244 70.5189 267.858 70.8295C267.472 71.1402 267.186 71.5473 267 72.0511C266.814 72.5549 266.722 73.0985 266.722 73.6818C266.722 74.2652 266.814 74.8068 267 75.3068C267.186 75.8068 267.472 76.2102 267.858 76.517C268.244 76.8239 268.737 76.9773 269.335 76.9773ZM275.337 78V69.2727H278.905C279.844 69.2727 280.59 69.4848 281.143 69.9091C281.696 70.3333 281.973 70.8939 281.973 71.5909C281.973 72.1212 281.816 72.5322 281.501 72.8239C281.187 73.1117 280.784 73.3068 280.291 73.4091C280.613 73.4545 280.926 73.5682 281.229 73.75C281.536 73.9318 281.789 74.1818 281.99 74.5C282.191 74.8144 282.291 75.2008 282.291 75.6591C282.291 76.1061 282.178 76.5057 281.95 76.858C281.723 77.2102 281.397 77.4886 280.973 77.6932C280.549 77.8977 280.041 78 279.45 78H275.337ZM276.609 76.7727H279.45C279.912 76.7727 280.274 76.6629 280.536 76.4432C280.797 76.2235 280.928 75.9242 280.928 75.5455C280.928 75.0947 280.797 74.7405 280.536 74.483C280.274 74.2216 279.912 74.0909 279.45 74.0909H276.609V76.7727ZM276.609 72.9318H278.905C279.265 72.9318 279.573 72.8826 279.831 72.7841C280.089 72.6818 280.286 72.5379 280.422 72.3523C280.562 72.1629 280.632 71.9394 280.632 71.6818C280.632 71.3144 280.479 71.0265 280.172 70.8182C279.865 70.6061 279.443 70.5 278.905 70.5H276.609V72.9318ZM285.298 78.0909C285.018 78.0909 284.777 77.9905 284.577 77.7898C284.376 77.589 284.276 77.3485 284.276 77.0682C284.276 76.7879 284.376 76.5473 284.577 76.3466C284.777 76.1458 285.018 76.0455 285.298 76.0455C285.579 76.0455 285.819 76.1458 286.02 76.3466C286.221 76.5473 286.321 76.7879 286.321 77.0682C286.321 77.2538 286.274 77.4242 286.179 77.5795C286.088 77.7348 285.965 77.8598 285.81 77.9545C285.658 78.0455 285.488 78.0909 285.298 78.0909Z" fill="#6C6C6C"/>
<path d="M86.9844 59.1818H118.312V60.2727H86.9844V59.1818Z" fill="#6C6C6C"/>
<path d="M176.422 59.1818H319.129V60.2727H176.422V59.1818ZM0 81.1818H65.6719V82.2727H0V81.1818Z" fill="#6C6C6C"/>
<a href="https://www.ted.com/talks/tim_urban_inside_the_mind_of_a_master_procrastinator">
<rect fill="black" fill-opacity="0" x="86.9844" y="45.3182" width="31.3281" height="19.3636"/>
</a>
<a href="https://waitbutwhy.com/2013/10/why-procrastinators-procrastinate.html">
<rect fill="black" fill-opacity="0" x="176.422" y="45.3182" width="142.707" height="19.3636"/>
</a>
<a href="https://waitbutwhy.com/2013/10/why-procrastinators-procrastinate.html">
<rect fill="black" fill-opacity="0" y="67.3182" width="65.6705" height="19.3636"/>
</a>
</svg>
